<?xml version="1.0" encoding="utf-8"?>
<!-- Generator: Adobe Illustrator 28.2.0, SVG Export Plug-In . SVG Version: 6.00 Build 0)  -->
<svg version="1.1" id="圖層_1" xmlns="http://www.w3.org/2000/svg" xmlns:xlink="http://www.w3.org/1999/xlink" x="0px" y="0px"
	 viewBox="0 0 512 512" style="enable-background:new 0 0 512 512;" xml:space="preserve">
<style type="text/css">
	.st0{fill:#B687D4;}
	.st1{fill:#684084;}
</style>
<g>
	<path class="st0" d="M467.9,243.1c17.4,105.8-70.5,209.8-176.6,221.2c-91.7,15-186-50.4-203.5-142.2
		c-16.8-70.5,20.1-147.4,89.7-171.4c44.1-15.6,98.3-11.1,130.3,27.3c15.4,19.4,21.5,45.3,15.6,69.3c-5.5,22.9-29.3,44.4-53.2,38.6
		c-3.9-0.8-4.7-6.4-1.3-8.3c20.6-12.2,26.3-35.7,19.4-57.1c-12.4-35.1-59.1-37.6-91.3-22c-58.3,27.7-62.2,102.6-28.7,150.6
		c55.9,86.2,187.7,66.4,246.3-9.2c21.9-26.6,36.7-60,42.7-96.9C458,237.2,467.2,237.3,467.9,243.1L467.9,243.1z"/>
	<path class="st1" d="M423.9,391.5c-33,39.4-80.5,67.2-132.6,72.8c-91.7,15-186-50.4-203.6-142.2C73.7,263.5,97,200.3,145.3,167
		c-1.3,9.6-1.9,19.2-1.9,28.9c0,20,2.6,39.1,7.7,57.4c-8.8,31.4-1.9,68.1,17.3,95.8c31.5,48.6,87,63.6,140,53.8
		c12.7,2.5,25.7,3.9,39.1,3.9C373.7,406.8,399.7,401.6,423.9,391.5z"/>
	<path class="st0" d="M44.1,268.9C26.7,163.1,114.6,59.1,220.7,47.7c91.7-15,186,50.4,203.5,142.2c16.8,70.5-20.1,147.4-89.7,171.4
		c-44.1,15.6-98.3,11.1-130.3-27.3c-15.4-19.4-21.5-45.3-15.6-69.3c5.5-22.9,29.3-44.4,53.2-38.6c3.9,0.8,4.7,6.4,1.3,8.3
		c-20.6,12.2-26.3,35.7-19.4,57.1c12.4,35.1,59.1,37.6,91.3,22c58.3-27.7,62.2-102.6,28.7-150.6C287.7,76.6,155.9,96.4,97.3,172
		c-21.9,26.6-36.7,60-42.7,96.9C54,274.8,44.8,274.7,44.1,268.9L44.1,268.9z"/>
	<path class="st1" d="M198.8,51.6c-19.6,21.3-34.4,46.4-43.6,73.8c-22.6,11.1-42.7,27-58,46.7c-21.9,26.6-36.6,60-42.7,96.8
		c-0.5,5.9-9.8,5.9-10.5,0C28,170.4,102.9,73.5,198.8,51.6z"/>
</g>
</svg>
