<?xml version="1.0" encoding="UTF-8"?>
<svg id="_圖層_1" data-name="圖層 1" xmlns="http://www.w3.org/2000/svg" viewBox="0 0 400 400">
  <defs>
    <style>
      .cls-1 {
        fill: #fff;
      }
    </style>
  </defs>
  <path class="cls-1" d="M391.69,154.01l-39.69-28.58V32c0-17.67-14.33-32-32-32h-48c-15.19,0-28.28,10.68-31.35,25.55v19.71l-28.96-20.85c-6.98-5.03-16.39-5.03-23.38,0L8.31,154.01C3.09,157.77,0,163.81,0,170.25v25.39C0,206.69,8.95,215.64,20,215.64h28.17c2.21,0,4,1.79,4,4v160.36c0,11.05,8.95,20,20,20h255.65c11.05,0,20-8.95,20-20h0V219.64c0-2.21,1.79-4,4-4h28.17c11.05,0,20-8.95,20-20v-25.4c0-6.43-3.09-12.47-8.31-16.23Zm-120.45,98.92c0,6.39-5.18,11.57-11.57,11.57h-43.19v43.19c0,6.39-5.18,11.57-11.57,11.57h-9.79c-6.39,0-11.57-5.18-11.57-11.57v-43.19h-43.19c-6.39,0-11.57-5.18-11.57-11.57v-9.79c0-6.39,5.18-11.57,11.57-11.57h43.19v-43.19c0-6.39,5.18-11.57,11.57-11.57h9.79c6.39,0,11.57,5.18,11.57,11.57v43.19h43.19c6.39,0,11.57,5.18,11.57,11.57v9.79Z"/>
</svg>