<?xml version="1.0" encoding="utf-8"?>
<!-- Generator: Adobe Illustrator 28.2.0, SVG Export Plug-In . SVG Version: 6.00 Build 0)  -->
<svg version="1.1" id="圖層_1" xmlns="http://www.w3.org/2000/svg" xmlns:xlink="http://www.w3.org/1999/xlink" x="0px" y="0px"
	 viewBox="0 0 400 400" style="enable-background:new 0 0 400 400;" xml:space="preserve">
<style type="text/css">
	.st0{fill:#FFFFFF;}
</style>
<path class="st0" d="M357.7,339.2c-5.8,0-10.5,4.7-10.5,10.5v29.1H82.7c-16,0-29.1-12.7-29.7-28.6c0-0.3,0.1-0.6,0.1-0.8
	c0-0.5,0-1.2,0-2.1c0.9-15.6,13.9-28,29.7-28h272.5c0.8,0,1.6-0.1,2.4-0.3c0.1,0,0.1,0,0.2,0c5.8,0,10.5-4.7,10.5-10.5v-298
	c0-5.8-4.7-10.5-10.5-10.5h-275C54.6,0,31.8,22.8,31.8,50.9c0,0.4,0.1,0.7,0.1,1.1c0,25.9-0.4,264,0,295.3c0,0.6-0.1,1.2-0.1,1.8
	c0,27,21.1,49.1,47.7,50.7c0.5,0.1,1.1,0.2,1.6,0.2h276.7c5.8,0,10.5-4.7,10.5-10.5v-39.7C368.3,344,363.5,339.2,357.7,339.2z"/>
</svg>
