<?xml version="1.0" encoding="utf-8"?>
<!-- Generator: Adobe Illustrator 28.2.0, SVG Export Plug-In . SVG Version: 6.00 Build 0)  -->
<svg version="1.1" id="圖層_1" xmlns="http://www.w3.org/2000/svg" xmlns:xlink="http://www.w3.org/1999/xlink" x="0px" y="0px"
	 viewBox="0 0 400 400" style="enable-background:new 0 0 400 400;" xml:space="preserve">
<style type="text/css">
	.st0{fill:#FFFFFF;}
</style>
<g>
	<path class="st0" d="M200,0C117,0,49.4,67.6,49.4,150.6c0,64.7,71.4,152.2,123.7,216.1c9.5,11.7,18.6,22.9,26.9,33.3
		c8.2-10.4,17.3-21.6,26.9-33.3c52.2-63.9,123.6-151.4,123.6-216.1C350.6,67.6,283.1,0,200,0z M200,279.1
		c-70.8,0-128.5-57.6-128.5-128.5c0-70.9,57.7-128.5,128.5-128.5c70.9,0,128.5,57.6,128.5,128.5C328.5,221.5,270.9,279.1,200,279.1z
		"/>
	<path class="st0" d="M200,44.4C141.5,44.4,93.9,92,93.9,150.6c0,58.5,47.6,106.2,106.1,106.2c58.6,0,106.1-47.6,106.1-106.2
		C306.1,92,258.6,44.4,200,44.4z M177,196.5c0,6.2-5,11.2-11.2,11.2c-6.2,0-11.2-5-11.2-11.2v-91.8c0-6.2,5-11.2,11.2-11.2
		c6.1,0,11.2,5,11.2,11.2V196.5z M230.4,164.2h-9.5v32.3h0c0,6.2-4.9,11.2-11.1,11.2c-6.2,0-11.2-5-11.2-11.2v-91.8
		c0-6.2,4.9-11.2,11.2-11.2h20.6c19.5,0,35.3,15.9,35.3,35.3C265.7,148.3,249.9,164.2,230.4,164.2z"/>
	<path class="st0" d="M230.4,115.9h-9.5v26h9.5c7.2,0,12.9-5.8,12.9-13C243.4,121.7,237.6,115.9,230.4,115.9z"/>
</g>
</svg>
