<?xml version="1.0" encoding="utf-8"?>
<!-- Generator: Adobe Illustrator 27.0.0, SVG Export Plug-In . SVG Version: 6.00 Build 0)  -->
<svg version="1.1" id="圖層_1" xmlns="http://www.w3.org/2000/svg" xmlns:xlink="http://www.w3.org/1999/xlink" x="0px" y="0px"
	 viewBox="0 0 512 512" style="enable-background:new 0 0 512 512;" xml:space="preserve">
<style type="text/css">
	.st0{fill:none;stroke:#09105A;stroke-width:69;stroke-linecap:round;stroke-linejoin:round;stroke-miterlimit:10;}
	.st1{fill:#683D09;}
	.st2{fill:#F2C88C;}
</style>
<path class="st0" d="M472.9,204.3c0-152.5-124.5-156.6-206-142.9c-1.8,0.3-3.2,1.1-4.3,2.1c-4.6,4.2-2.6,13.3,5,13.7
	c84,4.6,117.8,36.3,131.2,60.3c2.6,4.6-3.5,9-7.2,5.2c-28.7-30.3-68.3-33-97.1-29.8c-8.3,0.9-9.5,12.4-1.9,15.3
	c34.7,12.7,70,43.8,59.3,96.8c-8.1,40-24.6,69.4-42,90.6l89.1,76.6l4,38l0.1,0.5l0,0.1c29.8-32.3,62.8-90.7,68.8-192.9
	c0,0,0,0,0-0.1c0.1-1.7,0.2-3.3,0.3-5c0-0.4,0-0.8,0.1-1.2c0.1-2.8,0.2-5.6,0.3-8.5c0-0.6,0-1.2,0.1-1.8c0-1.1,0.1-2.3,0.1-3.4
	c0-1.2,0.1-2.5,0.1-3.7c0-1,0-1.9,0-2.9c0-2.1,0-4.1,0-6.2c0-0.2,0-0.4,0-0.6c0,0,0,0,0-0.1C472.9,204.4,472.9,204.3,472.9,204.3z"
	/>
<path class="st0" d="M144.7,175.3l-74.2-74.2c-17.6,1.3-31.6,15.3-33,33l74.2,74.2L144.7,175.3z"/>
<path class="st1" d="M342.5,456.2c7.3,7.5,18.9,8.8,27.7,3.4c33-20.1,104.3-83.7,104.3-255.1C474.5,52,350,47.8,268.3,61.5
	c-9.3,1.6-8.5,15.1,0.8,15.7c84,4.6,117.8,36.3,131.2,60.3c2.6,4.6-3.5,9-7.2,5.2c-28.7-30.3-68.3-33-97.1-29.8
	c-8.3,0.9-9.5,12.4-1.9,15.3c34.7,12.7,70,43.8,59.3,96.8c-15.6,77.2-62.5,115.1-87,130c-7.4,4.6-8.7,14.7-2.7,20.9L342.5,456.2z"/>
<path class="st2" d="M474.5,204.3c0,124.8-37.8,192.4-71.1,227.8c26.5-39.4,50.1-102.5,50.1-201.4c0-113.9-69.5-145-138.8-147.7
	c-13.2-2.9-28.3-5-45.4-5.9c-9.3-0.5-10.2-14.1-0.8-15.7C350,47.7,474.5,51.8,474.5,204.3L474.5,204.3z"/>
<path class="st0" d="M403.1,430.8l0-0.1c-0.4,0.5-0.9,0.9-1.3,1.4c0.4-0.6,0.8-1.3,1.3-1.9l-4-38L310,315.5l-131.4-113l23.9-23.9
	l-15.3-15.3l-87.4,87.4l15.3,15.3l23.9-23.9l189.5,220.6l78.7,8.2L403.1,430.8z"/>
<path class="st2" d="M72.1,101.2c-17.6,1.3-31.6,15.3-33,33l74.2,74.2l33-33L72.1,101.2z"/>
<path class="st2" d="M180.2,202.5l23.9-23.9l-15.3-15.3l-87.4,87.4l15.3,15.3l23.9-23.9l189.5,220.6l78.7,8.2l-8.2-78.7L180.2,202.5
	z"/>
</svg>
