<?xml version="1.0" encoding="utf-8"?>
<!-- Generator: Adobe Illustrator 28.2.0, SVG Export Plug-In . SVG Version: 6.00 Build 0)  -->
<svg version="1.1" id="圖層_1" xmlns="http://www.w3.org/2000/svg" xmlns:xlink="http://www.w3.org/1999/xlink" x="0px" y="0px"
	 viewBox="0 0 512 512" style="enable-background:new 0 0 512 512;" xml:space="preserve">
<style type="text/css">
	.st0{fill:#0AC400;}
</style>
<g>
	<path class="st0" d="M52.4,219.1c3,3.1,7.1,4.8,11.4,4.8h83.3c6.5,0,11.8,5.3,11.8,11.8v260.6c0,8.7,7.1,15.8,15.8,15.8h162.2
		c8.7,0,15.8-7.1,15.8-15.8V235.6c0-6.5,5.3-11.8,11.8-11.8H448c8.7,0.2,15.9-6.8,16.1-15.5c0.1-4.4-1.6-8.6-4.8-11.6L267.2,4.7
		c-2.9-3-6.9-4.7-11.1-4.7c-4.2,0-8.3,1.7-11.3,4.7L52.7,196.8C46.5,202.9,46.4,212.9,52.4,219.1L52.4,219.1z"/>
</g>
</svg>
