<?xml version="1.0" encoding="utf-8"?>
<!-- Generator: Adobe Illustrator 28.2.0, SVG Export Plug-In . SVG Version: 6.00 Build 0)  -->
<svg version="1.1" id="圖層_1" xmlns="http://www.w3.org/2000/svg" xmlns:xlink="http://www.w3.org/1999/xlink" x="0px" y="0px"
	 viewBox="0 0 512 512" style="enable-background:new 0 0 512 512;" xml:space="preserve">
<style type="text/css">
	.st0{fill:#683D09;}
	.st1{fill:#F2C88C;}
</style>
<rect y="0" width="512" height="512"/>
<path class="st0" d="M316.9,441.6c7,7.2,18.2,8.5,26.7,3.3c31.8-19.4,100.5-80.7,100.5-245.9c0-147-120-151-198.7-137.8
	c-9,1.5-8.2,14.6,0.8,15.1c81,4.4,113.5,35,126.5,58.1c2.5,4.4-3.4,8.7-6.9,5c-27.7-29.2-65.8-31.8-93.6-28.7
	c-8,0.9-9.2,12-1.8,14.7c33.4,12.2,67.5,42.2,57.2,93.3c-15,74.4-60.2,110.9-83.9,125.3c-7.1,4.4-8.4,14.2-2.6,20.1L316.9,441.6z"/>
<path class="st1" d="M444.1,198.8c0,120.3-36.4,185.5-68.5,219.6c25.5-38,48.3-98.8,48.3-194.1c0-109.8-67-139.8-133.8-142.4
	c-12.7-2.8-27.3-4.8-43.8-5.7c-9-0.5-9.8-13.6-0.8-15.1C324.1,47.9,444.1,51.8,444.1,198.8L444.1,198.8z"/>
<path class="st1" d="M56.3,99.4c-17,1.3-30.5,14.7-31.8,31.8L96,202.7l31.8-31.8L56.3,99.4z"/>
<path class="st1" d="M160.5,197.1l23-23l-14.7-14.7l-84.2,84.2l14.7,14.7l23-23L305,447.9l75.9,7.9l-7.9-75.9L160.5,197.1z"/>
</svg>
