<?xml version="1.0" encoding="utf-8"?>
<!-- Generator: Adobe Illustrator 27.0.0, SVG Export Plug-In . SVG Version: 6.00 Build 0)  -->
<svg version="1.1" id="圖層_1" xmlns="http://www.w3.org/2000/svg" xmlns:xlink="http://www.w3.org/1999/xlink" x="0px" y="0px"
	 viewBox="0 0 512 512" style="enable-background:new 0 0 512 512;" xml:space="preserve">
<style type="text/css">
	.st0{fill:none;stroke:#09105A;stroke-width:100;stroke-linejoin:round;stroke-miterlimit:10;}
	.st1{fill:#FC4F4F;}
	.st2{fill:#E54242;}
	.st3{opacity:0.3;fill:#FFFFFF;enable-background:new    ;}
</style>
<g>
	<path class="st0" d="M393.8,99c-3-1.3-6-2.4-9.2-3.4c-6.2-2-12.9-3.3-19.6-4.1c-86.8-8.8-109,73.9-109,73.9s-22.3-82.7-108.8-73.9
		C66.6,99.7,24.4,201.1,77.1,286.4c15.1,24.4,38.6,50.7,63.8,75.2c0.1,0.1,0.3,0.3,0.4,0.4c-0.1-0.1-0.3-0.1-0.4-0.2
		c50.6,49,107.5,89.9,115.1,89.9c5.7-0.1,39-23,76.6-55.1c37.6-32,79.4-73.3,102.2-110c15.9-25.7,23.2-52.7,23.4-78.3
		C458.7,159.5,433.7,116.2,393.8,99z"/>
	<g>
		<path class="st1" d="M384.6,95.6c-6.2-2-12.9-3.3-19.6-4.1c-86.8-8.8-109,73.9-109,73.9s-22.3-82.7-108.8-73.9
			C66.6,99.7,24.4,201.1,77.1,286.4c15.1,24.4,38.6,50.7,63.8,75.2c50.6,49,107.5,89.9,115.1,89.9c11.4,0,133.2-91.3,178.8-164.8
			C483.1,208.4,451.8,116.8,384.6,95.6z"/>
		<path class="st2" d="M434.8,286.4c48.3-78,17.1-169.6-50.2-190.8c0,0,67.1,64.7,28.5,131.2S245.5,376.1,227.2,379
			c-15.1,2.4-53.3-1.1-86.3-17.3c50.6,49,107.5,89.9,115.1,89.9C267.4,451.4,389.2,360.1,434.8,286.4L434.8,286.4z"/>
		
			<ellipse transform="matrix(0.6451 -0.7641 0.7641 0.6451 -79.0689 142.3467)" class="st3" cx="113.7" cy="156.3" rx="45.8" ry="23.2"/>
	</g>
</g>
</svg>
