<?xml version="1.0" encoding="utf-8"?>
<!-- Generator: Adobe Illustrator 28.2.0, SVG Export Plug-In . SVG Version: 6.00 Build 0)  -->
<svg version="1.1" id="圖層_1" xmlns="http://www.w3.org/2000/svg" xmlns:xlink="http://www.w3.org/1999/xlink" x="0px" y="0px"
	 viewBox="0 0 1662.2 987.9" style="enable-background:new 0 0 1662.2 987.9;" xml:space="preserve">
<style type="text/css">
	.st0{fill:none;stroke:#000000;stroke-width:13;stroke-miterlimit:10;}
	.st1{fill:none;stroke:#000000;stroke-width:5;stroke-miterlimit:10;}
	.st2{font-family:'DFKaiShu-SB-Estd-BF';}
	.st3{font-size:73.0657px;}
</style>
<g>
	<path d="M1315.7,191.1h-198.1c-8.2,0-14.9,6.7-14.9,14.9v267.4c0,8.2,6.7,14.9,14.9,14.9h198.1c8.2,0,14.9-6.7,14.9-14.9V206
		C1330.6,197.8,1323.9,191.1,1315.7,191.1z M1320.7,473.4c0,2.7-2.2,5-5,5h-198.1c-2.7,0-5-2.2-5-5V206c0-2.7,2.2-5,5-5h198.1
		c2.7,0,5,2.2,5,5V473.4z"/>
	<path d="M1305.8,211h-178.3c-2.7,0-5,2.2-5,5v118.9c0,2.7,2.2,5,5,5h178.3c2.7,0,5-2.2,5-5V215.9
		C1310.7,213.2,1308.5,211,1305.8,211z M1300.8,329.8h-168.4v-29.7h168.4V329.8z M1300.8,290.2h-168.4v-29.7h168.4V290.2z
		 M1300.8,250.6h-168.4v-29.7h168.4V250.6z"/>
	<path d="M1276.1,240.7h9.9c2.7,0,5-2.2,5-5c0-2.7-2.2-5-5-5h-9.9c-2.7,0-5,2.2-5,5C1271.1,238.4,1273.3,240.7,1276.1,240.7z
		 M1276.1,280.3h9.9c2.7,0,5-2.2,5-5s-2.2-5-5-5h-9.9c-2.7,0-5,2.2-5,5S1273.3,280.3,1276.1,280.3z M1276.1,319.9h9.9
		c2.7,0,5-2.2,5-5s-2.2-5-5-5h-9.9c-2.7,0-5,2.2-5,5S1273.3,319.9,1276.1,319.9z M1216.7,418.9c-10.9,0-19.8,8.9-19.8,19.8
		s8.9,19.8,19.8,19.8c10.9,0,19.8-8.9,19.8-19.8S1227.6,418.9,1216.7,418.9z M1216.7,448.7c-5.5,0-9.9-4.4-9.9-9.9s4.4-9.9,9.9-9.9
		s9.9,4.4,9.9,9.9S1222.1,448.7,1216.7,448.7z"/>
</g>
<g>
	<g>
		<path d="M1567.8,687.2h-266c-9.3,0-16.9,7.6-16.9,16.9v179c0,9.3,7.6,16.9,16.9,16.9h98.1l-2.9,14.5h-20.2c-2.7,0-4.8,2.2-4.8,4.8
			v14.5c0,2.7,2.2,4.8,4.8,4.8h116.1c2.7,0,4.8-2.2,4.8-4.8v-14.5c0-2.7-2.2-4.8-4.8-4.8h-20.2l-2.9-14.5h98.1
			c9.3,0,16.9-7.6,16.9-16.9v-179C1584.7,694.8,1577.1,687.2,1567.8,687.2z M1488,924.2v4.8h-106.4v-4.8H1488z M1406.8,914.5
			l2.9-14.5h50.1l2.9,14.5H1406.8z M1575,883.1c0,4-3.2,7.3-7.3,7.3h-266c-4,0-7.3-3.2-7.3-7.3V871H1575V883.1z M1575,861.3h-280.5
			V704.1c0-4,3.2-7.3,7.3-7.3h266c4,0,7.3,3.2,7.3,7.3V861.3z"/>
		<path d="M1439.6,875.8h-9.7c-2.7,0-4.8,2.2-4.8,4.8s2.2,4.8,4.8,4.8h9.7c2.7,0,4.8-2.2,4.8-4.8S1442.3,875.8,1439.6,875.8z"/>
	</g>
	<g>
		<path d="M1522,800c-0.4-10-2.2-21.2-4.8-31.6c-2.6-10-5.9-19.4-9.8-26.6c-15.3-26.8-31.8-22.7-51.7-17.4
			c-6.3,1.5-13.1,3.3-20.1,3.9h-2.2c-7-0.7-13.7-2.4-20.1-3.9c-19.8-5-36.4-9.4-51.7,17.7c-3.9,7.2-7.4,16.6-9.8,26.6
			c-2.6,10.5-4.4,21.6-4.8,31.6c-0.4,11.1,0.7,19.2,3.1,24.9c2.4,5.2,5.9,8.5,10.5,9.8c4.1,1.1,8.9,0.7,14-1.5
			c8.5-3.5,18.3-10.9,27.9-19.8c6.8-6.5,19.4-9.8,32.1-9.8c12.6,0,25.3,3.3,32.1,9.8c9.6,8.9,19.4,16.4,27.9,19.8
			c5,2,9.8,2.6,14,1.5c4.4-1.3,8.1-4.4,10.5-10C1521.3,819.4,1522.4,811.3,1522,800L1522,800z M1511.5,821.8
			c-1.3,3.1-3.1,4.8-5.2,5.5c-2.4,0.7-5.5,0.2-8.9-1.1c-7.6-3.1-16.6-9.8-25.3-18.1c-8.3-8.3-22.9-12.4-37.5-12.4
			c-14.6,0-29.2,4.1-37.7,12c-8.9,8.3-17.9,15.3-25.3,18.1c-3.5,1.3-6.5,2-8.9,1.1c-2.2-0.7-3.9-2.4-5.2-5.5
			c-1.7-4.1-2.6-10.9-2.2-20.9c0.4-9.4,2-20.1,4.6-30.1c2.4-9.4,5.5-18.1,9.2-24.6c12-21.6,25.9-18.1,42.5-13.7
			c6.8,1.7,13.7,3.5,21.4,4.1h3.3c7.8-0.7,14.8-2.4,21.6-4.1c16.6-4.1,30.5-7.8,42.5,13.7c3.7,6.5,6.8,15,9.2,24.6
			c2.4,10,4.1,20.5,4.6,30.1C1514.3,810.4,1513.5,817.2,1511.5,821.8z"/>
		<path d="M1414.5,757.5c-2.2-2-4.8-3.5-7.8-3.7c-0.2-2.8-1.5-5.7-3.5-7.6l-0.2-0.2c-2.4-2.4-5.5-3.7-8.9-3.7
			c-3.5,0-6.8,1.5-8.9,3.7c-2,2-3.5,4.8-3.7,7.8c-3.1,0.2-5.7,1.5-7.8,3.5l-0.2,0.2c-2.4,2.4-3.7,5.5-3.7,8.9s1.5,6.8,3.7,8.9
			c2.2,2.2,4.8,3.5,8.1,3.7c0.2,3.1,1.5,5.9,3.7,7.8c2.4,2.4,5.5,3.7,8.9,3.7c3.5,0,6.8-1.5,8.9-3.7c2-2.2,3.5-4.8,3.7-7.8
			c3.1-0.2,5.9-1.5,7.8-3.7c2.4-2.4,3.7-5.5,3.7-8.9S1416.7,759.6,1414.5,757.5L1414.5,757.5z M1409,769.7c-0.9,0.9-2,1.3-3.3,1.3
			h-3.1c-2.2,0-4.1,1.7-4.1,4.1v2.8c0,1.3-0.4,2.4-1.3,3.3s-2,1.3-3.3,1.3s-2.4-0.4-3.3-1.3s-1.3-2-1.3-3.3v-3.1
			c0-2.2-1.7-4.1-4.1-4.1h-3.1c-1.3,0-2.4-0.4-3.3-1.3c-0.7-0.7-1.3-1.7-1.3-3.1s0.4-2.4,1.3-3.3l0.2-0.2c0.9-0.7,2-1.1,3.1-1.1h3.1
			c2.2,0,4.1-1.7,4.1-4.1v-3.1c0-1.3,0.4-2.4,1.3-3.3s2-1.3,3.3-1.3s2.4,0.4,3.3,1.3l0.2,0.2c0.7,0.9,1.1,2,1.1,3.1v3.1
			c0,2.2,1.7,4.1,4.1,4.1h3.1c1.3,0,2.4,0.4,3.3,1.3s1.3,2,1.3,3.3S1409.9,768.8,1409,769.7L1409,769.7z"/>
		<circle cx="1472.5" cy="750.9" r="7.6"/>
		<circle cx="1472.5" cy="781.9" r="7.6"/>
		<circle cx="1457" cy="766.4" r="7.6"/>
		<circle cx="1488" cy="766.4" r="7.6"/>
	</g>
</g>
<g>
	<g>
		<path d="M1107,687.2H841c-9.3,0-16.9,7.6-16.9,16.9v179c0,9.3,7.6,16.9,16.9,16.9h98.1l-2.9,14.5h-20.2c-2.7,0-4.8,2.2-4.8,4.8
			v14.5c0,2.7,2.2,4.8,4.8,4.8H1032c2.7,0,4.8-2.2,4.8-4.8v-14.5c0-2.7-2.2-4.8-4.8-4.8h-20.2l-2.9-14.5h98.1
			c9.3,0,16.9-7.6,16.9-16.9v-179C1123.9,694.8,1116.3,687.2,1107,687.2z M1027.2,924.2v4.8H920.8v-4.8H1027.2z M946,914.5l2.9-14.5
			H999l2.9,14.5H946z M1114.2,883.1c0,4-3.2,7.3-7.3,7.3H841c-4,0-7.3-3.2-7.3-7.3V871h280.5V883.1z M1114.2,861.3H833.7V704.1
			c0-4,3.2-7.3,7.3-7.3h266c4,0,7.3,3.2,7.3,7.3V861.3z"/>
		<path d="M978.8,875.8h-9.7c-2.7,0-4.8,2.2-4.8,4.8s2.2,4.8,4.8,4.8h9.7c2.7,0,4.8-2.2,4.8-4.8S981.5,875.8,978.8,875.8z"/>
	</g>
	<g>
		<path d="M1061.2,800c-0.4-10-2.2-21.2-4.8-31.6c-2.6-10-5.9-19.4-9.8-26.6c-15.3-26.8-31.8-22.7-51.7-17.4
			c-6.3,1.5-13.1,3.3-20.1,3.9h-2.2c-7-0.7-13.7-2.4-20.1-3.9c-19.8-5-36.4-9.4-51.7,17.7c-3.9,7.2-7.4,16.6-9.8,26.6
			c-2.6,10.5-4.4,21.6-4.8,31.6c-0.4,11.1,0.7,19.2,3.1,24.9c2.4,5.2,5.9,8.5,10.5,9.8c4.1,1.1,8.9,0.7,14-1.5
			c8.5-3.5,18.3-10.9,27.9-19.8c6.8-6.5,19.4-9.8,32.1-9.8s25.3,3.3,32.1,9.8c9.6,8.9,19.4,16.4,27.9,19.8c5,2,9.8,2.6,14,1.5
			c4.4-1.3,8.1-4.4,10.5-10C1060.5,819.4,1061.6,811.3,1061.2,800L1061.2,800z M1050.7,821.8c-1.3,3.1-3.1,4.8-5.2,5.5
			c-2.4,0.7-5.5,0.2-8.9-1.1c-7.6-3.1-16.6-9.8-25.3-18.1c-8.3-8.3-22.9-12.4-37.5-12.4s-29.2,4.1-37.7,12
			c-8.9,8.3-17.9,15.3-25.3,18.1c-3.5,1.3-6.5,2-8.9,1.1c-2.2-0.7-3.9-2.4-5.2-5.5c-1.7-4.1-2.6-10.9-2.2-20.9
			c0.4-9.4,2-20.1,4.6-30.1c2.4-9.4,5.5-18.1,9.2-24.6c12-21.6,25.9-18.1,42.5-13.7c6.8,1.7,13.7,3.5,21.4,4.1h3.3
			c7.8-0.7,14.8-2.4,21.6-4.1c16.6-4.1,30.5-7.8,42.5,13.7c3.7,6.5,6.8,15,9.2,24.6c2.4,10,4.1,20.5,4.6,30.1
			C1053.6,810.4,1052.7,817.2,1050.7,821.8z"/>
		<path d="M953.7,757.5c-2.2-2-4.8-3.5-7.8-3.7c-0.2-2.8-1.5-5.7-3.5-7.6l-0.2-0.2c-2.4-2.4-5.5-3.7-8.9-3.7s-6.8,1.5-8.9,3.7
			c-2,2-3.5,4.8-3.7,7.8c-3.1,0.2-5.7,1.5-7.8,3.5l-0.2,0.2c-2.4,2.4-3.7,5.5-3.7,8.9s1.5,6.8,3.7,8.9c2.2,2.2,4.8,3.5,8.1,3.7
			c0.2,3.1,1.5,5.9,3.7,7.8c2.4,2.4,5.5,3.7,8.9,3.7s6.8-1.5,8.9-3.7c2-2.2,3.5-4.8,3.7-7.8c3.1-0.2,5.9-1.5,7.8-3.7
			c2.4-2.4,3.7-5.5,3.7-8.9S955.9,759.6,953.7,757.5L953.7,757.5z M948.2,769.7c-0.9,0.9-2,1.3-3.3,1.3h-3.1c-2.2,0-4.1,1.7-4.1,4.1
			v2.8c0,1.3-0.4,2.4-1.3,3.3s-2,1.3-3.3,1.3s-2.4-0.4-3.3-1.3c-0.9-0.9-1.3-2-1.3-3.3v-3.1c0-2.2-1.7-4.1-4.1-4.1h-3.1
			c-1.3,0-2.4-0.4-3.3-1.3c-0.7-0.7-1.3-1.7-1.3-3.1s0.4-2.4,1.3-3.3l0.2-0.2c0.9-0.7,2-1.1,3.1-1.1h3.1c2.2,0,4.1-1.7,4.1-4.1v-3.1
			c0-1.3,0.4-2.4,1.3-3.3c0.9-0.9,2-1.3,3.3-1.3s2.4,0.4,3.3,1.3l0.2,0.2c0.7,0.9,1.1,2,1.1,3.1v3.1c0,2.2,1.7,4.1,4.1,4.1h3.1
			c1.3,0,2.4,0.4,3.3,1.3s1.3,2,1.3,3.3S949.1,768.8,948.2,769.7L948.2,769.7z"/>
		<circle cx="1011.7" cy="750.9" r="7.6"/>
		<circle cx="1011.7" cy="781.9" r="7.6"/>
		<circle cx="996.2" cy="766.4" r="7.6"/>
		<circle cx="1027.2" cy="766.4" r="7.6"/>
	</g>
</g>
<g>
	<g>
		<path d="M472.3,687.2h-266c-9.3,0-16.9,7.6-16.9,16.9v179c0,9.3,7.6,16.9,16.9,16.9h98.1l-2.9,14.5h-20.2c-2.7,0-4.8,2.2-4.8,4.8
			v14.5c0,2.7,2.2,4.8,4.8,4.8h116.1c2.7,0,4.8-2.2,4.8-4.8v-14.5c0-2.7-2.2-4.8-4.8-4.8h-20.2l-2.9-14.5h98.1
			c9.3,0,16.9-7.6,16.9-16.9v-179C489.2,694.8,481.6,687.2,472.3,687.2z M392.5,924.2v4.8H286.1v-4.8H392.5z M311.3,914.5l2.9-14.5
			h50.1l2.9,14.5H311.3z M479.5,883.1c0,4-3.2,7.3-7.3,7.3h-266c-4,0-7.3-3.2-7.3-7.3V871h280.5V883.1z M479.5,861.3H199V704.1
			c0-4,3.2-7.3,7.3-7.3h266c4,0,7.3,3.2,7.3,7.3V861.3z"/>
		<path d="M344.1,875.8h-9.7c-2.7,0-4.8,2.2-4.8,4.8s2.2,4.8,4.8,4.8h9.7c2.7,0,4.8-2.2,4.8-4.8S346.8,875.8,344.1,875.8z"/>
	</g>
	<g>
		<path d="M426.5,800c-0.4-10-2.2-21.2-4.8-31.6c-2.6-10-5.9-19.4-9.8-26.6c-15.3-26.8-31.8-22.7-51.7-17.4
			c-6.3,1.5-13.1,3.3-20.1,3.9h-2.2c-7-0.7-13.7-2.4-20.1-3.9c-19.8-5-36.4-9.4-51.7,17.7c-3.9,7.2-7.4,16.6-9.8,26.6
			c-2.6,10.5-4.4,21.6-4.8,31.6c-0.4,11.1,0.7,19.2,3.1,24.9c2.4,5.2,5.9,8.5,10.5,9.8c4.1,1.1,8.9,0.7,14-1.5
			c8.5-3.5,18.3-10.9,27.9-19.8c6.8-6.5,19.4-9.8,32.1-9.8c12.6,0,25.3,3.3,32.1,9.8c9.6,8.9,19.4,16.4,27.9,19.8
			c5,2,9.8,2.6,14,1.5c4.4-1.3,8.1-4.4,10.5-10C425.8,819.4,426.9,811.3,426.5,800L426.5,800z M416,821.8c-1.3,3.1-3.1,4.8-5.2,5.5
			c-2.4,0.7-5.5,0.2-8.9-1.1c-7.6-3.1-16.6-9.8-25.3-18.1c-8.3-8.3-22.9-12.4-37.5-12.4c-14.6,0-29.2,4.1-37.7,12
			c-8.9,8.3-17.9,15.3-25.3,18.1c-3.5,1.3-6.5,2-8.9,1.1c-2.2-0.7-3.9-2.4-5.2-5.5c-1.7-4.1-2.6-10.9-2.2-20.9
			c0.4-9.4,2-20.1,4.6-30.1c2.4-9.4,5.5-18.1,9.2-24.6c12-21.6,25.9-18.1,42.5-13.7c6.8,1.7,13.7,3.5,21.4,4.1h3.3
			c7.8-0.7,14.8-2.4,21.6-4.1c16.6-4.1,30.5-7.8,42.5,13.7c3.7,6.5,6.8,15,9.2,24.6c2.4,10,4.1,20.5,4.6,30.1
			C418.8,810.4,418,817.2,416,821.8z"/>
		<path d="M319,757.5c-2.2-2-4.8-3.5-7.8-3.7c-0.2-2.8-1.5-5.7-3.5-7.6l-0.2-0.2c-2.4-2.4-5.5-3.7-8.9-3.7s-6.8,1.5-8.9,3.7
			c-2,2-3.5,4.8-3.7,7.8c-3.1,0.2-5.7,1.5-7.8,3.5l-0.2,0.2c-2.4,2.4-3.7,5.5-3.7,8.9s1.5,6.8,3.7,8.9c2.2,2.2,4.8,3.5,8.1,3.7
			c0.2,3.1,1.5,5.9,3.7,7.8c2.4,2.4,5.5,3.7,8.9,3.7s6.8-1.5,8.9-3.7c2-2.2,3.5-4.8,3.7-7.8c3.1-0.2,5.9-1.5,7.8-3.7
			c2.4-2.4,3.7-5.5,3.7-8.9S321.1,759.6,319,757.5L319,757.5z M313.5,769.7c-0.9,0.9-2,1.3-3.3,1.3h-3.1c-2.2,0-4.1,1.7-4.1,4.1v2.8
			c0,1.3-0.4,2.4-1.3,3.3s-2,1.3-3.3,1.3c-1.3,0-2.4-0.4-3.3-1.3c-0.9-0.9-1.3-2-1.3-3.3v-3.1c0-2.2-1.7-4.1-4.1-4.1h-3.1
			c-1.3,0-2.4-0.4-3.3-1.3c-0.7-0.7-1.3-1.7-1.3-3.1s0.4-2.4,1.3-3.3l0.2-0.2c0.9-0.7,2-1.1,3.1-1.1h3.1c2.2,0,4.1-1.7,4.1-4.1v-3.1
			c0-1.3,0.4-2.4,1.3-3.3c0.9-0.9,2-1.3,3.3-1.3c1.3,0,2.4,0.4,3.3,1.3l0.2,0.2c0.7,0.9,1.1,2,1.1,3.1v3.1c0,2.2,1.7,4.1,4.1,4.1
			h3.1c1.3,0,2.4,0.4,3.3,1.3s1.3,2,1.3,3.3S314.4,768.8,313.5,769.7L313.5,769.7z"/>
		<circle cx="377" cy="750.9" r="7.6"/>
		<circle cx="377" cy="781.9" r="7.6"/>
		<circle cx="361.5" cy="766.4" r="7.6"/>
		<circle cx="392.4" cy="766.4" r="7.6"/>
	</g>
</g>
<g>
	<g>
		<path d="M472.3,213.2h-266c-9.3,0-16.9,7.6-16.9,16.9v179c0,9.3,7.6,16.9,16.9,16.9h98.1l-2.9,14.5h-20.2c-2.7,0-4.8,2.2-4.8,4.8
			v14.5c0,2.7,2.2,4.8,4.8,4.8h116.1c2.7,0,4.8-2.2,4.8-4.8v-14.5c0-2.7-2.2-4.8-4.8-4.8h-20.2l-2.9-14.5h98.1
			c9.3,0,16.9-7.6,16.9-16.9v-179C489.2,220.7,481.6,213.2,472.3,213.2z M392.5,450.2v4.8H286.1v-4.8H392.5z M311.3,440.5l2.9-14.5
			h50.1l2.9,14.5H311.3z M479.5,409c0,4-3.2,7.3-7.3,7.3h-266c-4,0-7.3-3.2-7.3-7.3v-12.1h280.5V409z M479.5,387.3H199V230.1
			c0-4,3.2-7.3,7.3-7.3h266c4,0,7.3,3.2,7.3,7.3V387.3z"/>
		<path d="M344.1,401.8h-9.7c-2.7,0-4.8,2.2-4.8,4.8c0,2.7,2.2,4.8,4.8,4.8h9.7c2.7,0,4.8-2.2,4.8-4.8
			C348.9,404,346.8,401.8,344.1,401.8z"/>
	</g>
	<g>
		<path d="M426.5,325.9c-0.4-10-2.2-21.2-4.8-31.6c-2.6-10-5.9-19.4-9.8-26.6c-15.3-26.8-31.8-22.7-51.7-17.4
			c-6.3,1.5-13.1,3.3-20.1,3.9h-2.2c-7-0.7-13.7-2.4-20.1-3.9c-19.8-5-36.4-9.4-51.7,17.7c-3.9,7.2-7.4,16.6-9.8,26.6
			c-2.6,10.5-4.4,21.6-4.8,31.6c-0.4,11.1,0.7,19.2,3.1,24.9c2.4,5.2,5.9,8.5,10.5,9.8c4.1,1.1,8.9,0.7,14-1.5
			c8.5-3.5,18.3-10.9,27.9-19.8c6.8-6.5,19.4-9.8,32.1-9.8c12.6,0,25.3,3.3,32.1,9.8c9.6,8.9,19.4,16.4,27.9,19.8
			c5,2,9.8,2.6,14,1.5c4.4-1.3,8.1-4.4,10.5-10C425.8,345.3,426.9,337.3,426.5,325.9L426.5,325.9z M416,347.7
			c-1.3,3.1-3.1,4.8-5.2,5.5c-2.4,0.7-5.5,0.2-8.9-1.1c-7.6-3.1-16.6-9.8-25.3-18.1c-8.3-8.3-22.9-12.4-37.5-12.4
			c-14.6,0-29.2,4.1-37.7,12c-8.9,8.3-17.9,15.3-25.3,18.1c-3.5,1.3-6.5,2-8.9,1.1c-2.2-0.7-3.9-2.4-5.2-5.5
			c-1.7-4.1-2.6-10.9-2.2-20.9c0.4-9.4,2-20.1,4.6-30.1c2.4-9.4,5.5-18.1,9.2-24.6c12-21.6,25.9-18.1,42.5-13.7
			c6.8,1.7,13.7,3.5,21.4,4.1h3.3c7.8-0.7,14.8-2.4,21.6-4.1c16.6-4.1,30.5-7.8,42.5,13.7c3.7,6.5,6.8,15,9.2,24.6
			c2.4,10,4.1,20.5,4.6,30.1C418.8,336.4,418,343.2,416,347.7z"/>
		<path d="M319,283.4c-2.2-2-4.8-3.5-7.8-3.7c-0.2-2.8-1.5-5.7-3.5-7.6l-0.2-0.2c-2.4-2.4-5.5-3.7-8.9-3.7s-6.8,1.5-8.9,3.7
			c-2,2-3.5,4.8-3.7,7.8c-3.1,0.2-5.7,1.5-7.8,3.5l-0.2,0.2c-2.4,2.4-3.7,5.5-3.7,8.9s1.5,6.8,3.7,8.9s4.8,3.5,8.1,3.7
			c0.2,3.1,1.5,5.9,3.7,7.8c2.4,2.4,5.5,3.7,8.9,3.7s6.8-1.5,8.9-3.7c2-2.2,3.5-4.8,3.7-7.8c3.1-0.2,5.9-1.5,7.8-3.7
			c2.4-2.4,3.7-5.5,3.7-8.9S321.1,285.6,319,283.4L319,283.4z M313.5,295.6c-0.9,0.9-2,1.3-3.3,1.3h-3.1c-2.2,0-4.1,1.7-4.1,4.1v2.8
			c0,1.3-0.4,2.4-1.3,3.3c-0.9,0.9-2,1.3-3.3,1.3c-1.3,0-2.4-0.4-3.3-1.3c-0.9-0.9-1.3-2-1.3-3.3v-3.1c0-2.2-1.7-4.1-4.1-4.1h-3.1
			c-1.3,0-2.4-0.4-3.3-1.3c-0.7-0.7-1.3-1.7-1.3-3.1c0-1.3,0.4-2.4,1.3-3.3l0.2-0.2c0.9-0.7,2-1.1,3.1-1.1h3.1
			c2.2,0,4.1-1.7,4.1-4.1v-3.1c0-1.3,0.4-2.4,1.3-3.3c0.9-0.9,2-1.3,3.3-1.3c1.3,0,2.4,0.4,3.3,1.3l0.2,0.2c0.7,0.9,1.1,2,1.1,3.1
			v3.1c0,2.2,1.7,4.1,4.1,4.1h3.1c1.3,0,2.4,0.4,3.3,1.3c0.9,0.9,1.3,2,1.3,3.3C314.8,293.7,314.4,294.8,313.5,295.6L313.5,295.6z"
			/>
		<circle cx="377" cy="276.9" r="7.6"/>
		<circle cx="377" cy="307.8" r="7.6"/>
		<circle cx="361.5" cy="292.4" r="7.6"/>
		<circle cx="392.4" cy="292.4" r="7.6"/>
	</g>
</g>
<g>
	<g>
		<line class="st0" x1="344.9" y1="662.5" x2="344.9" y2="561.8"/>
		<g>
			<polygon points="360,572.1 344.9,515.8 329.8,572.1 			"/>
		</g>
	</g>
</g>
<g>
	<g>
		<polyline class="st0" points="974,662.8 974,600.9 1189.5,600.9 1189.5,561.8 		"/>
		<g>
			<polygon points="1205.3,572.6 1189.5,513.4 1173.6,572.6 			"/>
		</g>
	</g>
</g>
<g>
	<g>
		<polyline class="st0" points="1438.3,662.8 1438.3,600.9 1236.1,600.9 1236.1,561.8 		"/>
		<g>
			<polygon points="1252,572.6 1236.1,513.4 1220.2,572.6 			"/>
		</g>
	</g>
</g>
<line class="st1" x1="704.3" y1="180.2" x2="704.3" y2="955.4"/>
<text transform="matrix(1 0 0 1 101.1577 123.2371)" class="st2 st3">玩家託管伺服器</text>
<text transform="matrix(1 0 0 1 1026.7476 123.2371)" class="st2 st3">專用伺服器</text>
</svg>
