<?xml version="1.0" encoding="utf-8"?>
<!-- Generator: Adobe Illustrator 28.2.0, SVG Export Plug-In . SVG Version: 6.00 Build 0)  -->
<svg version="1.1" id="圖層_1" xmlns="http://www.w3.org/2000/svg" xmlns:xlink="http://www.w3.org/1999/xlink" x="0px" y="0px"
	 viewBox="0 0 2468.3 1128.9" style="enable-background:new 0 0 2468.3 1128.9;" xml:space="preserve">
<style type="text/css">
	.st0{fill:#FFFFFF;stroke:#000000;stroke-width:6;stroke-miterlimit:10;}
	.st1{font-family:'DFKaiShu-SB-Estd-BF';}
	.st2{font-size:48px;}
	.st3{enable-background:new    ;}
	.st4{font-family:'TimesNewRomanPSMT';}
	.st5{font-size:61.7745px;}
	.st6{fill:#919191;stroke:#000000;stroke-width:5;stroke-miterlimit:10;}
	.st7{fill:#E5E5E5;stroke:#000000;stroke-width:5;stroke-miterlimit:10;}
	.st8{fill:#FFFFFF;stroke:#000000;stroke-width:5;stroke-miterlimit:10;}
	.st9{fill:none;stroke:#000000;stroke-width:6;stroke-miterlimit:10;}
</style>
<rect x="91.9" y="126.2" class="st0" width="2279.5" height="374"/>
<text transform="matrix(1 0 0 1 1163.6769 105.816)" class="st1 st2">伺服器</text>
<text transform="matrix(1 0 0 1 543.3375 245.4998)" class="st3"><tspan x="0" y="0" class="st4 st2">Authority(</tspan><tspan x="202.6" y="0" class="st1 st5">真品</tspan><tspan x="326.2" y="0" class="st4 st2">)</tspan></text>
<text transform="matrix(1 0 0 1 1067.4805 245.5001)" class="st3"><tspan x="0" y="0" class="st4 st2">Authority(</tspan><tspan x="202.6" y="0" class="st1 st5">真品</tspan><tspan x="326.2" y="0" class="st4 st2">)</tspan></text>
<text transform="matrix(1 0 0 1 1580.4707 245.5001)" class="st3"><tspan x="0" y="0" class="st4 st2">None(</tspan><tspan x="120" y="0" class="st1 st5">不參與複製</tspan><tspan x="428.8" y="0" class="st4 st2">)</tspan></text>
<rect x="88.3" y="642.4" class="st0" width="1113.2" height="421.8"/>
<text transform="matrix(1 0 0 1 91.915 620.6286)" class="st1 st2">玩家甲的電腦</text>
<g>
	<circle class="st6" cx="714.4" cy="353.9" r="79.5"/>
	<text transform="matrix(1 0 0 1 683.5372 372.513)" class="st1 st5">甲</text>
</g>
<g>
	<circle class="st7" cx="1238.6" cy="353.9" r="79.5"/>
	<text transform="matrix(1 0 0 1 1207.6801 372.513)" class="st1 st5">乙</text>
</g>
<g>
	<circle class="st8" cx="1802.6" cy="353.9" r="79.5"/>
	<text transform="matrix(1 0 0 1 1771.6681 372.513)" class="st1 st5">丙</text>
</g>
<text transform="matrix(1 0 0 1 758.4581 771.0641)" class="st3"><tspan x="0" y="0" class="st4 st2">SimulatedProxy</tspan><tspan x="46" y="74.1" class="st4 st2">(</tspan><tspan x="62" y="74.1" class="st1 st5">複製品</tspan><tspan x="247.3" y="74.1" class="st4 st2">)</tspan></text>
<text transform="matrix(1 0 0 1 212.3791 771.0647)" class="st3"><tspan x="0" y="0" class="st4 st2">AutonomousProxy</tspan><tspan x="-50.8" y="74.1" class="st4 st2">(</tspan><tspan x="-34.9" y="74.1" class="st1 st5">可操控的複製品</tspan><tspan x="397.6" y="74.1" class="st4 st2">)</tspan></text>
<g>
	<circle class="st6" cx="386.2" cy="936.9" r="79.5"/>
	<text transform="matrix(1 0 0 1 355.298 955.4916)" class="st1 st5">甲</text>
</g>
<g>
	<circle class="st7" cx="913.1" cy="936.9" r="79.5"/>
	<text transform="matrix(1 0 0 1 882.2353 955.4915)" class="st1 st5">乙</text>
</g>
<rect x="1262.8" y="642.4" class="st0" width="1113.2" height="421.8"/>
<text transform="matrix(1 0 0 1 1262.8087 620.6286)" class="st1 st2">玩家乙的電腦</text>
<text transform="matrix(1 0 0 1 1906.2427 771.0641)" class="st3"><tspan x="0" y="0" class="st4 st2">AutonomousProxy</tspan><tspan x="-50.8" y="74.1" class="st4 st2">(</tspan><tspan x="-34.9" y="74.1" class="st1 st5">可操控的複製品</tspan><tspan x="397.6" y="74.1" class="st4 st2">)</tspan></text>
<text transform="matrix(1 0 0 1 1413.5308 771.0647)" class="st3"><tspan x="0" y="0" class="st4 st2">SimulatedProxy</tspan><tspan x="46" y="74.1" class="st4 st2">(</tspan><tspan x="62" y="74.1" class="st1 st5">複製品</tspan><tspan x="247.3" y="74.1" class="st4 st2">)</tspan></text>
<g>
	<circle class="st6" cx="1560.7" cy="936.9" r="79.5"/>
	<text transform="matrix(1 0 0 1 1529.7661 955.4916)" class="st1 st5">甲</text>
</g>
<g>
	<circle class="st7" cx="2087.6" cy="936.9" r="79.5"/>
	<text transform="matrix(1 0 0 1 2056.7034 955.4915)" class="st1 st5">乙</text>
</g>
<g>
	<g>
		<line class="st9" x1="644.9" y1="642.4" x2="644.9" y2="553.3"/>
		<g>
			<polygon points="662.4,565.2 644.9,500.2 627.5,565.2 			"/>
		</g>
	</g>
</g>
<g>
	<g>
		<line class="st9" x1="1819.4" y1="642.4" x2="1819.4" y2="553.3"/>
		<g>
			<polygon points="1836.8,565.2 1819.4,500.2 1802,565.2 			"/>
		</g>
	</g>
</g>
</svg>
