<?xml version="1.0" encoding="utf-8"?>
<!-- Generator: Adobe Illustrator 28.2.0, SVG Export Plug-In . SVG Version: 6.00 Build 0)  -->
<svg version="1.1" id="圖層_1" xmlns="http://www.w3.org/2000/svg" xmlns:xlink="http://www.w3.org/1999/xlink" x="0px" y="0px"
	 viewBox="0 0 1205.6 436.6" style="enable-background:new 0 0 1205.6 436.6;" xml:space="preserve">
<style type="text/css">
	.st0{fill:none;stroke:#000000;stroke-width:13;stroke-miterlimit:10;}
	.st1{font-family:'DFKaiShu-SB-Estd-BF';}
	.st2{font-size:52px;}
</style>
<g>
	<path d="M268.5,100.4H70.4c-8.2,0-14.9,6.7-14.9,14.9v267.4c0,8.2,6.7,14.9,14.9,14.9h198.1c8.2,0,14.9-6.7,14.9-14.9V115.3
		C283.4,107.1,276.7,100.4,268.5,100.4z M273.5,382.7c0,2.7-2.2,5-5,5H70.4c-2.7,0-5-2.2-5-5V115.3c0-2.7,2.2-5,5-5h198.1
		c2.7,0,5,2.2,5,5V382.7z"/>
	<path d="M258.6,120.3H80.3c-2.7,0-5,2.2-5,5v118.9c0,2.7,2.2,5,5,5h178.3c2.7,0,5-2.2,5-5v-119
		C263.5,122.5,261.3,120.3,258.6,120.3z M253.6,239.1H85.2v-29.7h168.4V239.1z M253.6,199.5H85.2v-29.7h168.4V199.5z M253.6,159.9
		H85.2v-29.7h168.4V159.9z"/>
	<path d="M228.9,150h9.9c2.7,0,5-2.2,5-5c0-2.7-2.2-5-5-5h-9.9c-2.7,0-5,2.2-5,5C223.9,147.7,226.1,150,228.9,150z M228.9,189.6h9.9
		c2.7,0,5-2.2,5-5s-2.2-5-5-5h-9.9c-2.7,0-5,2.2-5,5S226.1,189.6,228.9,189.6z M228.9,229.2h9.9c2.7,0,5-2.2,5-5s-2.2-5-5-5h-9.9
		c-2.7,0-5,2.2-5,5S226.1,229.2,228.9,229.2z M169.5,328.2c-10.9,0-19.8,8.9-19.8,19.8s8.9,19.8,19.8,19.8s19.8-8.9,19.8-19.8
		S180.4,328.2,169.5,328.2z M169.5,358c-5.5,0-9.9-4.4-9.9-9.9s4.4-9.9,9.9-9.9s9.9,4.4,9.9,9.9S174.9,358,169.5,358z"/>
</g>
<g>
	<g>
		<path d="M1139.3,100.4h-266c-9.3,0-16.9,7.6-16.9,16.9v179c0,9.3,7.6,16.9,16.9,16.9h98.1l-2.9,14.5h-20.2c-2.7,0-4.8,2.2-4.8,4.8
			V347c0,2.7,2.2,4.8,4.8,4.8h116c2.7,0,4.8-2.2,4.8-4.8v-14.5c0-2.7-2.2-4.8-4.8-4.8h-20.2l-2.9-14.5h98.1
			c9.3,0,16.9-7.6,16.9-16.9v-179C1156.2,108,1148.6,100.4,1139.3,100.4z M1059.5,337.4v4.8H953.1v-4.8H1059.5z M978.3,327.7
			l2.9-14.5h50.1l2.9,14.5H978.3z M1146.5,296.3c0,4-3.2,7.3-7.3,7.3H873.3c-4,0-7.3-3.2-7.3-7.3v-12.1h280.5V296.3z M1146.5,274.5
			H866V117.3c0-4,3.2-7.3,7.3-7.3h266c4,0,7.3,3.2,7.3,7.3v157.2H1146.5z"/>
		<path d="M1011.1,289h-9.7c-2.7,0-4.8,2.2-4.8,4.8s2.2,4.8,4.8,4.8h9.7c2.7,0,4.8-2.2,4.8-4.8S1013.8,289,1011.1,289z"/>
	</g>
	<g>
		<path d="M1093.5,213.2c-0.4-10-2.2-21.2-4.8-31.6c-2.6-10-5.9-19.4-9.8-26.6c-15.3-26.8-31.8-22.7-51.7-17.4
			c-6.3,1.5-13.1,3.3-20.1,3.9h-2.2c-7-0.7-13.7-2.4-20.1-3.9c-19.8-5-36.4-9.4-51.7,17.7c-3.9,7.2-7.4,16.6-9.8,26.6
			c-2.6,10.5-4.4,21.6-4.8,31.6c-0.4,11.1,0.7,19.2,3.1,24.9c2.4,5.2,5.9,8.5,10.5,9.8c4.1,1.1,8.9,0.7,14-1.5
			c8.5-3.5,18.3-10.9,27.9-19.8c6.8-6.5,19.4-9.8,32.1-9.8s25.3,3.3,32.1,9.8c9.6,8.9,19.4,16.4,27.9,19.8c5,2,9.8,2.6,14,1.5
			c4.4-1.3,8.1-4.4,10.5-10C1092.8,232.6,1093.9,224.5,1093.5,213.2L1093.5,213.2z M1083,235c-1.3,3.1-3.1,4.8-5.2,5.5
			c-2.4,0.7-5.5,0.2-8.9-1.1c-7.6-3.1-16.6-9.8-25.3-18.1c-8.3-8.3-22.9-12.4-37.5-12.4s-29.2,4.1-37.7,12
			c-8.9,8.3-17.9,15.3-25.3,18.1c-3.5,1.3-6.5,2-8.9,1.1c-2.2-0.7-3.9-2.4-5.2-5.5c-1.7-4.1-2.6-10.9-2.2-20.9
			c0.4-9.4,2-20.1,4.6-30.1c2.4-9.4,5.5-18.1,9.2-24.6c12-21.6,25.9-18.1,42.5-13.7c6.8,1.7,13.7,3.5,21.4,4.1h3.3
			c7.8-0.7,14.8-2.4,21.6-4.1c16.6-4.1,30.5-7.8,42.5,13.7c3.7,6.5,6.8,15,9.2,24.6c2.4,10,4.1,20.5,4.6,30.1
			C1085.9,223.6,1085,230.4,1083,235z"/>
		<path d="M986,170.7c-2.2-2-4.8-3.5-7.8-3.7c-0.2-2.8-1.5-5.7-3.5-7.6l-0.2-0.2c-2.4-2.4-5.5-3.7-8.9-3.7s-6.8,1.5-8.9,3.7
			c-2,2-3.5,4.8-3.7,7.8c-3.1,0.2-5.7,1.5-7.8,3.5l-0.2,0.2c-2.4,2.4-3.7,5.5-3.7,8.9s1.5,6.8,3.7,8.9c2.2,2.2,4.8,3.5,8.1,3.7
			c0.2,3.1,1.5,5.9,3.7,7.8c2.4,2.4,5.5,3.7,8.9,3.7s6.8-1.5,8.9-3.7c2-2.2,3.5-4.8,3.7-7.8c3.1-0.2,5.9-1.5,7.8-3.7
			c2.4-2.4,3.7-5.5,3.7-8.9S988.2,172.8,986,170.7L986,170.7z M980.5,182.9c-0.9,0.9-2,1.3-3.3,1.3h-3.1c-2.2,0-4.1,1.7-4.1,4.1v2.8
			c0,1.3-0.4,2.4-1.3,3.3s-2,1.3-3.3,1.3s-2.4-0.4-3.3-1.3c-0.9-0.9-1.3-2-1.3-3.3V188c0-2.2-1.7-4.1-4.1-4.1h-3.1
			c-1.3,0-2.4-0.4-3.3-1.3c-0.7-0.7-1.3-1.7-1.3-3.1s0.4-2.4,1.3-3.3l0.2-0.2c0.9-0.7,2-1.1,3.1-1.1h3.1c2.2,0,4.1-1.7,4.1-4.1v-3.1
			c0-1.3,0.4-2.4,1.3-3.3c0.9-0.9,2-1.3,3.3-1.3s2.4,0.4,3.3,1.3l0.2,0.2c0.7,0.9,1.1,2,1.1,3.1v3.1c0,2.2,1.7,4.1,4.1,4.1h3.1
			c1.3,0,2.4,0.4,3.3,1.3s1.3,2,1.3,3.3S981.4,182,980.5,182.9L980.5,182.9z"/>
		<circle cx="1044" cy="164.1" r="7.6"/>
		<circle cx="1044" cy="195.1" r="7.6"/>
		<circle cx="1028.5" cy="179.6" r="7.6"/>
		<circle cx="1059.5" cy="179.6" r="7.6"/>
	</g>
</g>
<g>
	<g>
		<line class="st0" x1="776.3" y1="165.8" x2="423.7" y2="165.8"/>
		<g>
			<polygon points="443.7,150 333.9,165.8 443.7,181.7 			"/>
		</g>
	</g>
</g>
<g>
	<g>
		<line class="st0" x1="333.9" y1="321.5" x2="686.5" y2="321.5"/>
		<g>
			<polygon points="666.5,337.3 776.3,321.5 666.5,305.6 			"/>
		</g>
	</g>
</g>
<text transform="matrix(1 0 0 1 91.48 75.2781)" class="st1 st2">伺服器</text>
<text transform="matrix(1 0 0 1 933.1282 75.2781)" class="st1 st2">用戶端</text>
<text transform="matrix(1 0 0 1 453.6854 139.9851)" class="st1 st2">遊戲操作請求</text>
<text transform="matrix(1 0 0 1 410.4019 293.8852)" class="st1 st2">同步資訊</text>
</svg>
