<?xml version="1.0" encoding="utf-8"?>
<!-- Generator: Adobe Illustrator 27.0.0, SVG Export Plug-In . SVG Version: 6.00 Build 0)  -->
<svg version="1.1" id="圖層_1" xmlns="http://www.w3.org/2000/svg" xmlns:xlink="http://www.w3.org/1999/xlink" x="0px" y="0px"
	 viewBox="0 0 400 400" style="enable-background:new 0 0 400 400;" xml:space="preserve">
<style type="text/css">
	.st0{fill:#FFFFFF;}
</style>
<path class="st0" d="M321.9,243.8c-25.7,0-48.5,12.5-62.7,31.6l-75-34.8c2.2-7.9,3.4-16.3,3.4-24.9c0-12.1-2.3-23.6-6.5-34.2
	l83.3-50.5c14.3,15.6,34.8,25.3,57.5,25.3c43.1,0,78.1-35,78.1-78.1S365,0,321.9,0s-78.1,35-78.1,78.1c0,9.1,1.6,17.9,4.5,26
	l-83.3,50.5c-17.2-20-42.7-32.8-71.1-32.8C42.1,121.9,0,163.9,0,215.6s42.1,93.8,93.7,93.8c31.9,0,60.2-16.1,77.1-40.5l75,34.8
	c-1.4,5.8-2.1,11.9-2.1,18.2c0,43.1,35,78.1,78.1,78.1s78.1-35,78.1-78.1S365,243.8,321.9,243.8z M321.9,31.3
	c25.8,0,46.9,21,46.9,46.9s-21,46.9-46.9,46.9S275,104,275,78.1S296,31.3,321.9,31.3z M321.9,368.7c-25.8,0-46.9-21-46.9-46.9
	c0-25.8,21-46.9,46.9-46.9s46.9,21,46.9,46.9C368.8,347.7,347.7,368.7,321.9,368.7z"/>
</svg>
