<?xml version="1.0" encoding="utf-8"?>
<!-- Generator: Adobe Illustrator 27.0.0, SVG Export Plug-In . SVG Version: 6.00 Build 0)  -->
<svg version="1.1" id="圖層_1" xmlns="http://www.w3.org/2000/svg" xmlns:xlink="http://www.w3.org/1999/xlink" x="0px" y="0px"
	 viewBox="0 0 512 512" style="enable-background:new 0 0 512 512;" xml:space="preserve">
<style type="text/css">
	.st0{fill:#FFFFFF;}
</style>
<path class="st0" d="M106.7,362.7c5.7,0,11.1-2.2,15.1-6.2c0,0,0.1-0.1,0.1-0.1c8.3-8.4,8.2-21.9-0.1-30.2L73,277.3h289.7
	c11.8,0,21.3-9.6,21.3-21.3s-9.6-21.3-21.3-21.3H73l48.9-48.9c8.4-8.4,8.4-21.9,0-30.3c-8.4-8.4-21.9-8.4-30.3,0L6.2,240.9
	c0,0-0.1,0.1-0.1,0.1c-8.3,8.4-8.2,21.9,0.1,30.2l85.3,85.3C95.5,360.5,101,362.7,106.7,362.7z"/>
<path class="st0" d="M405.3,0H106.7C94.9,0,85.3,9.6,85.3,21.3c0,11.8,9.6,21.3,21.3,21.3h298.7c35.3,0,64,28.7,64,64v298.7
	c0,35.3-28.7,64-64,64H106.7c-11.8,0-21.3,9.6-21.3,21.3s9.6,21.3,21.3,21.3h298.7c58.9,0,106.7-47.8,106.7-106.7V106.7
	C512,47.8,464.2,0,405.3,0z"/>
</svg>
