<?xml version="1.0" encoding="utf-8"?>
<!-- Generator: Adobe Illustrator 27.0.0, SVG Export Plug-In . SVG Version: 6.00 Build 0)  -->
<svg version="1.1" id="圖層_1" xmlns="http://www.w3.org/2000/svg" xmlns:xlink="http://www.w3.org/1999/xlink" x="0px" y="0px"
	 viewBox="0 0 400 400" style="enable-background:new 0 0 400 400;" xml:space="preserve">
<style type="text/css">
	.st0{fill:#FFFFFF;}
</style>
<g>
	<path class="st0" d="M372,161.7c-12.1,0-21.8,9.8-21.8,21.8v134.9c0,20.9-16.9,37.8-37.8,37.8H81.5c-20.9,0-37.8-17-37.8-37.8V87.6
		c0-20.9,16.9-37.8,37.8-37.8h134.8c12.1,0,21.8-9.8,21.8-21.8s-9.8-21.8-21.8-21.8H81.5C36.5,6.2,0.1,42.6,0,87.6v230.9
		c0.1,45,36.5,81.4,81.5,81.5h230.8c45-0.1,81.4-36.5,81.5-81.5V183.6C393.8,171.6,384,161.8,372,161.7
		C372,161.7,372,161.7,372,161.7L372,161.7z M395.8,64.9L335,4.1c-5.8-5.5-14.8-5.5-20.6,0l-27.7,27.7l81.3,81.3l27.7-27.6
		C401.4,79.9,401.4,70.6,395.8,64.9L395.8,64.9z"/>
	<path class="st0" d="M127.8,196.8v60.8c0,8,6.5,14.6,14.5,14.6h60.8c3.9,0,7.6-1.5,10.3-4.3l134.1-134.2l-81.3-81.3L132.1,186.5
		C129.4,189.2,127.8,192.9,127.8,196.8L127.8,196.8z"/>
</g>
</svg>
