<?xml version="1.0" encoding="utf-8"?>
<!-- Generator: Adobe Illustrator 27.0.0, SVG Export Plug-In . SVG Version: 6.00 Build 0)  -->
<svg version="1.1" id="圖層_1" xmlns="http://www.w3.org/2000/svg" xmlns:xlink="http://www.w3.org/1999/xlink" x="0px" y="0px"
	 viewBox="0 0 512 512" style="enable-background:new 0 0 512 512;" xml:space="preserve">
<style type="text/css">
	.st0{fill:#FFFFFF;}
</style>
<g>
	<path class="st0" d="M352,266.7H160c-5.9,0-10.7,4.8-10.7,10.7V416h213.3V277.3C362.7,271.4,357.9,266.7,352,266.7z M320,362.7
		c0,5.9-4.8,10.7-10.7,10.7H202.7c-5.9,0-10.7-4.8-10.7-10.7V320c0-5.9,4.8-10.7,10.7-10.7h106.7c5.9,0,10.7,4.8,10.7,10.7V362.7z"
		/>
	<path class="st0" d="M138.7,437.3h234.7c5.9,0,10.7,4.8,10.7,10.7v21.3c0,5.9-4.8,10.7-10.7,10.7H138.7c-5.9,0-10.7-4.8-10.7-10.7
		V448C128,442.1,132.8,437.3,138.7,437.3z"/>
	<path class="st0" d="M150,202.8c23.3,11.9,38.2,25.6,46,42.5H316c7.8-16.9,22.8-30.6,46-42.5c5.2-2.7,7.3-9.1,4.6-14.4
		c-0.5-0.9-1-1.7-1.7-2.4c-16.6-17.7-47.2-30.2-68.1-37.2C316,133.8,320,111.3,320,96c0-35.3-28.7-64-64-64s-64,28.7-64,64
		c0,15.3,4,37.8,23.2,52.8c-20.9,7-51.5,19.5-68.1,37.2c-4,4.3-3.8,11.1,0.5,15.1C148.3,201.8,149.1,202.4,150,202.8L150,202.8z"/>
</g>
</svg>
