<?xml version="1.0" encoding="utf-8"?>
<!-- Generator: Adobe Illustrator 27.0.0, SVG Export Plug-In . SVG Version: 6.00 Build 0)  -->
<svg version="1.1" id="圖層_1" xmlns="http://www.w3.org/2000/svg" xmlns:xlink="http://www.w3.org/1999/xlink" x="0px" y="0px"
	 viewBox="0 0 512 512" style="enable-background:new 0 0 512 512;" xml:space="preserve">
<style type="text/css">
	.st0{fill:#F77106;stroke:#09105A;stroke-width:80;stroke-linecap:round;stroke-linejoin:round;stroke-miterlimit:10;}
	.st1{fill:#DEE7F6;}
	.st2{fill:#B6CEE6;}
	.st3{fill:#FFC75D;}
	.st4{fill:#EF9943;}
	.st5{fill:#FF8C07;}
	.st6{fill:#F77106;}
	.st7{fill:none;stroke:#09105A;stroke-width:80;stroke-linecap:round;stroke-linejoin:round;stroke-miterlimit:10;}
	.st8{fill:#FFFFFF;}
</style>
<path class="st0" d="M472.5,42.4l-71.7,8L160.3,306.6l-15.8-15.8c-4.4-4.4-11.5-4.4-15.9,0c-13.2,13.2-13.2,34.6,0,47.8l8,8
	L109.1,374l0,0l-39.2,39.3c-3.5,3.3-7.4,6.2-11.7,8.5l-4.4,2.1c-10.4,5.2-12.5,18.9-4.4,27l7.3,7.3l-0.1,0.1l7.4,7.3
	c8.1,8.1,21.8,6,27-4.4l2.1-4.4c2.3-4.3,5.1-8.2,8.5-11.7l52-51.8l14.8-14.8l7.9,7.9c6.6,6.6,15.3,9.9,23.9,9.9
	c8.7,0,17.3-3.3,23.9-9.9c4.4-4.4,4.4-11.5,0-15.9l-15.8-15.8L464.5,114L472.5,42.4z"/>
<g>
	<path class="st1" d="M208.3,354.7L464.5,114l8-71.7l-71.7,8L160.2,306.6L208.3,354.7z"/>
	<path class="st2" d="M208.3,354.7L464.5,114l8-71.7L184.3,330.6L208.3,354.7z"/>
	<path class="st3" d="M168.3,378.4L101.6,445c-3.3,3.5-6.2,7.4-8.5,11.7l-2.1,4.4c-5.2,10.4-18.9,12.5-27,4.4l-14.6-14.6
		c-8.1-8.1-6-21.8,4.4-27l4.4-2.1c4.3-2.3,8.2-5.1,11.7-8.5l66.5-66.7L168.3,378.4z"/>
	<path class="st4" d="M64,465.6c8.1,8.1,21.8,6,27-4.4l2.1-4.4c2.3-4.3,5.1-8.2,8.5-11.7l66.7-66.5l-15.9-15.9l-95.8,95.7L64,465.6z
		"/>
	<path class="st5" d="M144.5,290.8l79.7,79.7c4.4,4.4,4.4,11.5,0,15.9c-13.2,13.2-34.6,13.2-47.8,0l-47.8-47.8
		c-13.2-13.2-13.2-34.6,0-47.8C132.9,286.4,140.1,286.4,144.5,290.8L144.5,290.8z"/>
	<path class="st6" d="M152.4,362.5l23.9,23.9c13.2,13.2,34.6,13.2,47.8,0l0,0c4.4-4.4,4.4-11.5,0-15.9l0,0l-39.8-39.9L152.4,362.5
		L152.4,362.5z"/>
</g>
<path class="st7" d="M463.2,423.9l-4.4-2.1c-4.3-2.3-8.2-5.1-11.7-8.5l-66.5-66.6l8-8c13.1-13.2,13.1-34.6,0-47.8
	c-4.4-4.4-11.5-4.4-15.9,0l-15.9,15.8L116.1,50.4l-71.7-8l8,71.7l256.2,240.7l-15.8,15.8c-4.4,4.4-4.4,11.5,0,15.9c0,0,0,0,0.1,0.1
	c0,0,0,0,0,0c13.2,13.2,34.6,13.2,47.8,0l7.9-7.9l66.6,66.5c3.3,3.5,6.2,7.4,8.5,11.7l2.1,4.4c5.2,10.4,18.9,12.5,27,4.4l7.3-7.3
	l7.3-7.3C475.7,442.8,473.6,429.1,463.2,423.9z"/>
<path class="st8" d="M308.7,354.7L52.5,114.1l-8-71.7l71.7,8l240.7,256.2L308.7,354.7z"/>
<path class="st1" d="M308.7,354.7l24-24L44.5,42.4l8,71.7L308.7,354.7z"/>
<path class="st3" d="M348.7,378.5l66.7,66.5c3.3,3.5,6.2,7.4,8.5,11.7l2.1,4.4c5.2,10.4,18.9,12.5,27,4.4l14.6-14.6
	c8.1-8.1,6-21.8-4.4-27l-4.4-2.1c-4.3-2.3-8.2-5.1-11.7-8.5l-66.5-66.7L348.7,378.5z"/>
<path class="st4" d="M364.6,362.5l-15.9,15.9l66.7,66.5c3.3,3.5,6.2,7.4,8.5,11.7l2.1,4.4c5.2,10.4,18.9,12.5,27,4.4l7.3-7.3
	L364.6,362.5z"/>
<path class="st5" d="M388.6,338.7l-47.8,47.8c-13.2,13.2-34.6,13.2-47.8,0c-4.4-4.4-4.4-11.5,0-15.9l79.7-79.7
	c4.4-4.4,11.5-4.4,15.9,0C401.7,304.1,401.7,325.5,388.6,338.7L388.6,338.7z"/>
<path class="st6" d="M332.7,330.7l-39.8,39.8c-4.4,4.4-4.4,11.5,0,15.9l0,0c13.2,13.2,34.6,13.2,47.8,0l0,0l23.9-23.9L332.7,330.7
	L332.7,330.7z"/>
</svg>
