<?xml version="1.0" encoding="utf-8"?>
<!-- Generator: Adobe Illustrator 28.2.0, SVG Export Plug-In . SVG Version: 6.00 Build 0)  -->
<svg version="1.1" id="圖層_1" xmlns="http://www.w3.org/2000/svg" xmlns:xlink="http://www.w3.org/1999/xlink" x="0px" y="0px"
	 viewBox="0 0 512 512" style="enable-background:new 0 0 512 512;" xml:space="preserve">
<style type="text/css">
	.st0{fill:none;stroke:#09105A;stroke-width:46;stroke-miterlimit:10;}
	.st1{fill:#2F73E0;}
	.st2{fill:#2060BC;}
</style>
<g>
	<path class="st0" d="M482.1,219c2-5.7,2.8-12.3,0.7-18.8c-1.4-4.2-3.8-8.1-6.9-11.2c-1.9-1.9-4-3.5-6.3-4.9
		c-5.7-3.3-11.9-5.7-18.4-7.2c-13.4-3.3-29-4.8-44.9-5.9c-14.6-1-29.4-1.7-41.8-3c-1.1-0.1-2.2-0.2-3.2-0.4
		c-1.8-0.2-3.6-0.5-5.3-0.7c-10.5-1.7-18.3-4.4-19.6-5.3c0,0,0,0,0,0c-1.5-1.2-7.8-10.4-13.2-22.9c-5.4-12.5-11.1-28.2-17-43.7
		c-5.9-15.5-12-30.6-19.2-42.9c-3.3-5.9-7.4-11.3-12.3-16c-4.8-4.5-11.2-8.1-18.7-8.1c-7.5,0-13.9,3.6-18.7,8.1
		c-4.8,4.5-8.7,9.9-12.3,16c-7.2,12.2-13.2,27.4-19.2,42.9c-5.9,15.5-11.6,31.2-17,43.7c-5.4,12.5-11.7,21.7-13.2,22.9
		c-1.5,1.2-11.9,4.6-24.9,6.1c-13.1,1.5-29.2,2.3-45.1,3.4c-15.9,1.1-31.5,2.6-44.9,5.9c-6.5,1.4-12.7,3.8-18.4,7.2
		c-5.5,3.4-10.8,8.6-13.2,16c-2.3,7.4-0.9,15,1.6,21.2c2.6,6.2,6.4,11.6,10.8,17.1c8.9,10.9,20.8,21.7,33,32.4
		c12.2,10.7,24.9,21.2,34.6,30.5c9.7,9.2,16.1,18.3,16.7,20.2c0.6,1.9,0.5,13.2-2.2,26.7c-2.7,13.5-6.9,29.7-10.8,45.8
		c-3.9,16.2-7.5,32.1-8.6,46.4c-0.6,7.1-0.6,13.9,0.8,20.5c1.4,6.6,4.5,13.5,10.6,18.1c6.1,4.6,13.3,5.6,19.8,4.9
		c6.4-0.7,12.5-2.7,18.8-5.4c12.7-5.5,26.1-14,39.6-22.9c13.5-8.9,26.9-18.1,38.4-24.9c11.4-6.8,21.7-10.4,23.6-10.4
		c1.9,0,12.2,3.6,23.6,10.4c11.4,6.8,24.9,16,38.4,24.9c13.5,8.9,27,17.4,39.6,22.9c6.3,2.7,12.4,4.8,18.8,5.4
		c6.4,0.6,13.7-0.3,19.8-4.9c6.1-4.6,9.2-11.5,10.6-18.1c1.4-6.6,1.4-13.3,0.8-20.5c-1.1-14.3-4.7-30.3-8.6-46.4
		c-3.9-16.1-8.2-32.4-10.8-45.8c-2.7-13.5-2.8-24.8-2.2-26.7c0.5-1.8,6.2-9.8,14.9-18.5c0.6-0.6,1.2-1.2,1.8-1.7
		c5.4-5.1,11.6-10.6,18.2-16.3c4.7-4.1,9.6-8.3,14.5-12.5c0.6-0.5,1.2-1.1,1.9-1.6c0.6-0.5,1.2-1,1.8-1.5
		c11.6-10.2,22.8-20.5,31.3-30.8c3.5-4.3,6.6-8.6,9-13.2c0.7-1.3,1.3-2.5,1.8-3.9C481.5,220.6,481.8,219.8,482.1,219z"/>
	<g>
		<g>
			<path class="st1" d="M256,28c-7.5,0-13.9,3.6-18.7,8.1c-4.8,4.5-8.7,9.9-12.3,16c-7.2,12.2-13.2,27.4-19.2,42.9
				c-5.9,15.5-11.6,31.2-17,43.7c-5.4,12.5-11.7,21.7-13.2,22.9c-1.5,1.2-11.9,4.6-24.9,6.1c-13.1,1.5-29.2,2.3-45.1,3.4
				c-15.9,1.1-31.5,2.6-44.9,5.9c-6.5,1.4-12.7,3.8-18.4,7.2c-5.5,3.4-10.8,8.6-13.2,16c-2.3,7.4-0.9,15,1.6,21.2
				c2.6,6.2,6.4,11.6,10.8,17.1c8.9,10.9,20.8,21.7,33,32.4c12.2,10.7,24.9,21.2,34.6,30.5c9.7,9.2,16.1,18.3,16.7,20.2
				c0.6,1.9,0.5,13.2-2.2,26.7c-2.7,13.5-6.9,29.7-10.8,45.8c-3.9,16.2-7.5,32.1-8.6,46.4c-0.6,7.1-0.6,13.9,0.8,20.5
				c1.4,6.6,4.5,13.5,10.6,18.1c6.1,4.6,13.3,5.6,19.8,4.9c6.4-0.7,12.5-2.7,18.8-5.4c12.7-5.5,26.1-14,39.6-22.9
				c13.5-8.9,26.9-18.1,38.4-24.9c11.4-6.8,21.7-10.4,23.6-10.4c1.9,0,12.2,3.6,23.6,10.4c11.4,6.8,24.9,16,38.4,24.9
				c13.5,8.9,27,17.4,39.6,22.9c6.3,2.7,12.4,4.8,18.8,5.4c6.4,0.6,13.7-0.3,19.8-4.9c6.1-4.6,9.2-11.5,10.6-18.1
				c1.4-6.6,1.4-13.3,0.8-20.5c-1.1-14.3-4.7-30.3-8.6-46.4c-3.9-16.1-8.2-32.4-10.8-45.8c-2.7-13.5-2.8-24.8-2.2-26.7
				c0.6-1.9,7-10.9,16.7-20.2c9.7-9.3,22.4-19.8,34.6-30.5c12.2-10.6,24.1-21.5,33-32.4c4.5-5.4,8.3-10.9,10.8-17.1
				c2.6-6.2,4-13.7,1.6-21.2c-2.3-6.8-7-12.5-13.2-16c-5.7-3.3-11.9-5.7-18.4-7.2c-13.4-3.3-29-4.8-44.9-5.9
				c-15.9-1.1-32-1.8-45.1-3.4c-13-1.5-23.4-4.9-24.9-6.1c-1.5-1.2-7.8-10.4-13.2-22.9c-5.4-12.5-11.1-28.2-17-43.7
				c-5.9-15.5-12-30.6-19.2-42.9c-3.3-5.9-7.4-11.3-12.3-16C269.9,31.6,263.5,28,256,28z"/>
		</g>
		<g>
			<path class="st2" d="M256,28c-4.5,0.1-8.9,1.3-12.7,3.7c2.2,1.3,4.3,2.8,6,4.4c4.8,4.5,8.7,9.9,12.3,16
				c7.1,12.2,13.2,27.4,19.2,42.9c5.9,15.5,11.6,31.2,17,43.7c5.4,12.5,11.7,21.8,13.2,22.9c1.5,1.2,11.9,4.6,24.9,6.1
				s29.2,2.3,45.1,3.4c15.9,1.1,31.5,2.6,44.9,5.9c6.7,1.7,12.9,3.7,18.4,7.2s10.8,8.6,13.2,16c2.3,7.4,0.9,15-1.6,21.2
				c-2.8,6.2-6.4,11.9-10.8,17.1c-8.9,10.9-20.8,21.7-33,32.4c-12.2,10.7-24.9,21.2-34.6,30.4c-9.7,9.3-16.1,18.3-16.7,20.2
				c-0.6,1.9-0.5,13.2,2.2,26.7c2.7,13.5,6.9,29.6,10.8,45.8c3.9,16.2,7.5,32.1,8.6,46.4c0.6,7.2,0.6,13.9-0.8,20.5
				c-1.4,6.6-4.5,13.5-10.6,18.1c-1.4,1.1-2.9,2-4.6,2.7c3.4,1.1,6.7,1.8,10.1,2.2c6.4,0.7,13.7-0.3,19.8-4.9
				c6.1-4.6,9.2-11.6,10.6-18.1c1.4-6.6,1.4-13.3,0.8-20.5c-1.1-14.3-4.6-30.2-8.6-46.4c-3.9-16.1-8.2-32.4-10.8-45.8
				c-2.7-13.5-2.8-24.8-2.2-26.7c0.6-1.9,7-10.9,16.7-20.2c9.7-9.2,22.3-19.8,34.6-30.4c12.2-10.7,24.1-21.5,33-32.4
				c4.5-5.4,8.3-10.9,10.8-17.1c2.6-6.2,3.9-13.8,1.6-21.2c-2.3-6.8-7-12.5-13.2-16c-5.7-3.3-11.9-5.7-18.4-7.2
				c-13.4-3.3-29-4.8-44.9-5.9c-15.9-1.1-32-1.8-45.1-3.3c-13.1-1.5-23.4-4.9-24.9-6.1c-1.5-1.2-7.8-10.4-13.2-22.9
				c-5.4-12.5-11.1-28.2-17-43.7c-5.9-15.5-12-30.6-19.2-42.9c-3.3-5.9-7.4-11.3-12.3-16C269.9,31.6,263.5,28,256,28z"/>
		</g>
	</g>
</g>
</svg>
