<?xml version="1.0" encoding="utf-8"?>
<!-- Generator: Adobe Illustrator 27.0.0, SVG Export Plug-In . SVG Version: 6.00 Build 0)  -->
<svg version="1.1" id="圖層_1" xmlns="http://www.w3.org/2000/svg" xmlns:xlink="http://www.w3.org/1999/xlink" x="0px" y="0px"
	 viewBox="0 0 512 512" style="enable-background:new 0 0 512 512;" xml:space="preserve">
<style type="text/css">
	.st0{fill:none;stroke:#09105A;stroke-width:100;stroke-miterlimit:10;}
	.st1{fill:#2F73E0;}
	.st2{fill:#2060BC;}
</style>
<path class="st0" d="M460.3,224.6c1.8-5.1,2.5-11,0.6-16.8c-1.3-3.8-3.4-7.3-6.2-10c-1.7-1.7-3.6-3.1-5.6-4.4
	c-5.1-3-10.7-5.1-16.5-6.4c-12-3-26-4.3-40.2-5.3c-13.1-0.9-26.3-1.5-37.4-2.7c-1-0.1-2-0.2-2.9-0.4c-1.6-0.2-3.2-0.4-4.7-0.6
	c-9.4-1.5-16.4-3.9-17.6-4.7l0,0c-1.3-1.1-7-9.3-11.8-20.5c-4.8-11.2-9.9-25.3-15.2-39.1c-5.3-13.9-10.7-27.4-17.2-38.4
	c-3-5.3-6.6-10.1-11-14.3c-4.3-4-10-7.3-16.7-7.3c-6.7,0-12.4,3.2-16.7,7.3s-7.8,8.9-11,14.3c-6.4,10.9-11.8,24.5-17.2,38.4
	c-5.3,13.9-10.4,27.9-15.2,39.1s-10.5,19.4-11.8,20.5c-1.3,1.1-10.7,4.1-22.3,5.5c-11.7,1.3-26.2,2.1-40.4,3
	c-14.2,1-28.2,2.3-40.2,5.3c-5.8,1.3-11.4,3.4-16.5,6.4c-4.9,3-9.7,7.7-11.8,14.3c-2.1,6.6-0.8,13.4,1.4,19
	c2.3,5.6,5.7,10.4,9.7,15.3c8,9.8,18.6,19.4,29.6,29c10.9,9.6,22.3,19,31,27.3c8.7,8.2,14.4,16.4,15,18.1c0.5,1.7,0.4,11.8-2,23.9
	s-6.2,26.6-9.7,41c-3.5,14.5-6.7,28.8-7.7,41.6c-0.5,6.4-0.5,12.4,0.7,18.4c1.3,5.9,4,12.1,9.5,16.2c5.5,4.1,11.9,5,17.7,4.4
	c5.7-0.6,11.2-2.4,16.8-4.8c11.4-4.9,23.4-12.5,35.5-20.5c12.1-8,24.1-16.2,34.4-22.3c10.2-6.1,19.4-9.3,21.1-9.3s10.9,3.2,21.1,9.3
	s22.3,14.3,34.4,22.3c12.1,8,24.2,15.6,35.5,20.5c5.6,2.4,11.1,4.3,16.8,4.8c5.7,0.5,12.3-0.3,17.7-4.4c5.5-4.1,8.2-10.3,9.5-16.2
	s1.3-11.9,0.7-18.4c-1-12.8-4.2-27.1-7.7-41.6s-7.3-29-9.7-41c-2.4-12.1-2.5-22.2-2-23.9c0.4-1.6,5.6-8.8,13.3-16.6
	c0.5-0.5,1.1-1.1,1.6-1.5c4.8-4.6,10.4-9.5,16.3-14.6c4.2-3.7,8.6-7.4,13-11.2c0.5-0.4,1.1-1,1.7-1.4c0.5-0.4,1.1-0.9,1.6-1.3
	c10.4-9.1,20.4-18.4,28-27.6c3.1-3.9,5.9-7.7,8.1-11.8c0.6-1.2,1.2-2.2,1.6-3.5C459.7,226.1,460,225.3,460.3,224.6z"/>
<g>
	<g>
		<path class="st1" d="M257.8,53.6c-6.7,0-12.4,3.2-16.7,7.3c-4.3,4-7.8,8.9-11,14.3c-6.4,10.9-11.8,24.5-17.2,38.4
			c-5.3,13.9-10.4,27.9-15.2,39.1c-4.8,11.2-10.5,19.4-11.8,20.5c-1.3,1.1-10.7,4.1-22.3,5.5c-11.7,1.3-26.2,2.1-40.4,3
			c-14.2,1-28.2,2.3-40.2,5.3c-5.8,1.3-11.4,3.4-16.5,6.4c-4.9,3-9.7,7.7-11.8,14.3c-2.1,6.6-0.8,13.4,1.4,19
			c2.3,5.6,5.7,10.4,9.7,15.3c8,9.8,18.6,19.4,29.6,29s22.3,19,31,27.3c8.7,8.2,14.4,16.4,15,18.1c0.5,1.7,0.4,11.8-2,23.9
			c-2.4,12.1-6.2,26.6-9.7,41c-3.5,14.5-6.7,28.8-7.7,41.6c-0.5,6.4-0.5,12.4,0.7,18.4c1.3,5.9,4,12.1,9.5,16.2
			c5.5,4.1,11.9,5,17.7,4.4c5.7-0.6,11.2-2.4,16.8-4.8c11.4-4.9,23.4-12.5,35.5-20.5c12.1-8,24.1-16.2,34.4-22.3
			c10.2-6.1,19.4-9.3,21.1-9.3s10.9,3.2,21.1,9.3s22.3,14.3,34.4,22.3c12.1,8,24.2,15.6,35.5,20.5c5.6,2.4,11.1,4.3,16.8,4.8
			s12.3-0.3,17.7-4.4c5.5-4.1,8.2-10.3,9.5-16.2c1.3-5.9,1.3-11.9,0.7-18.4c-1-12.8-4.2-27.1-7.7-41.6s-7.3-29-9.7-41
			c-2.4-12.1-2.5-22.2-2-23.9c0.5-1.7,6.3-9.8,15-18.1c8.7-8.3,20.1-17.7,31-27.3c10.9-9.5,21.6-19.3,29.6-29
			c4-4.8,7.4-9.8,9.7-15.3c2.3-5.6,3.6-12.3,1.4-19c-2.1-6.1-6.3-11.2-11.8-14.3c-5.1-3-10.7-5.1-16.5-6.4c-12-3-26-4.3-40.2-5.3
			c-14.2-1-28.7-1.6-40.4-3c-11.6-1.3-21-4.4-22.3-5.5s-7-9.3-11.8-20.5c-4.8-11.2-9.9-25.3-15.2-39.1s-10.7-27.4-17.2-38.4
			c-3-5.3-6.6-10.1-11-14.3C270.2,56.8,264.5,53.6,257.8,53.6z"/>
	</g>
	<g>
		<path class="st2" d="M257.8,53.6c-4,0.1-8,1.2-11.4,3.3c2,1.2,3.9,2.5,5.4,3.9c4.3,4,7.8,8.9,11,14.3
			c6.4,10.9,11.8,24.5,17.2,38.4c5.3,13.9,10.4,27.9,15.2,39.1c4.8,11.2,10.5,19.5,11.8,20.5c1.3,1.1,10.7,4.1,22.3,5.5
			c11.6,1.3,26.2,2.1,40.4,3c14.2,1,28.2,2.3,40.2,5.3c6,1.5,11.6,3.3,16.5,6.4c4.9,3.1,9.7,7.7,11.8,14.3c2.1,6.6,0.8,13.4-1.4,19
			c-2.5,5.6-5.7,10.7-9.7,15.3c-8,9.8-18.6,19.4-29.6,29c-10.9,9.6-22.3,19-31,27.2c-8.7,8.3-14.4,16.4-15,18.1
			c-0.5,1.7-0.4,11.8,2,23.9s6.2,26.5,9.7,41c3.5,14.5,6.7,28.8,7.7,41.6c0.5,6.4,0.5,12.4-0.7,18.4s-4,12.1-9.5,16.2
			c-1.3,1-2.6,1.8-4.1,2.4c3,1,6,1.6,9,2c5.7,0.6,12.3-0.3,17.7-4.4c5.5-4.1,8.2-10.4,9.5-16.2c1.3-5.9,1.3-11.9,0.7-18.4
			c-1-12.8-4.1-27-7.7-41.6c-3.5-14.4-7.3-29-9.7-41c-2.4-12.1-2.5-22.2-2-23.9c0.5-1.7,6.3-9.8,15-18.1c8.7-8.2,20-17.7,31-27.2
			c10.9-9.6,21.6-19.3,29.6-29c4-4.8,7.4-9.8,9.7-15.3c2.3-5.6,3.5-12.4,1.4-19c-2.1-6.1-6.3-11.2-11.8-14.3
			c-5.1-3-10.7-5.1-16.5-6.4c-12-3-26-4.3-40.2-5.3c-14.2-1-28.7-1.6-40.4-3c-11.7-1.3-21-4.4-22.3-5.5c-1.3-1.1-7-9.3-11.8-20.5
			c-4.8-11.2-9.9-25.3-15.2-39.1s-10.7-27.4-17.2-38.4c-3-5.3-6.6-10.1-11-14.3C270.2,56.8,264.5,53.6,257.8,53.6z"/>
	</g>
</g>
</svg>
