<?xml version="1.0" encoding="utf-8"?>
<!-- Generator: Adobe Illustrator 28.2.0, SVG Export Plug-In . SVG Version: 6.00 Build 0)  -->
<svg version="1.1" id="圖層_1" xmlns="http://www.w3.org/2000/svg" xmlns:xlink="http://www.w3.org/1999/xlink" x="0px" y="0px"
	 viewBox="0 0 512 512" style="enable-background:new 0 0 512 512;" xml:space="preserve">
<style type="text/css">
	.st0{fill:#DEE7F6;}
	.st1{fill:#B6CEE6;}
	.st2{fill:#FFC75D;}
	.st3{fill:#EF9943;}
	.st4{fill:#FF8C07;}
	.st5{fill:#F77106;}
	.st6{fill:#FFFFFF;}
	.st7{fill:#09105A;}
</style>
<g>
	<path class="st0" d="M199,367.6L490.1,94.2l9.1-81.4l-81.4,9.1L144.4,313L199,367.6z"/>
	<path class="st1" d="M199,367.6L490.1,94.2l9.1-81.4L171.7,340.3L199,367.6z"/>
	<path class="st2" d="M153.6,394.6l-75.8,75.6c-3.8,4-7,8.4-9.6,13.3l-2.4,5c-5.9,11.8-21.5,14.2-30.7,5l-16.6-16.6
		c-9.2-9.2-6.8-24.8,5-30.7l5-2.4c4.9-2.6,9.3-5.8,13.3-9.6l75.6-75.8L153.6,394.6z"/>
	<path class="st3" d="M35.1,493.6c9.2,9.2,24.8,6.8,30.7-5l2.4-5c2.6-4.9,5.8-9.3,9.6-13.3l75.8-75.6l-18.1-18.1L26.7,485.3
		L35.1,493.6z"/>
	<path class="st4" d="M126.5,295l90.5,90.5c5,5,5,13.1,0,18.1c-15,15-39.3,15-54.3,0l-54.3-54.3c-15-15-15-39.3,0-54.3
		C113.4,290,121.5,290,126.5,295L126.5,295z"/>
	<path class="st5" d="M135.5,376.5l27.1,27.1c15,15,39.3,15,54.3,0c0,0,0,0,0,0c5-5,5-13.1,0-18.1c0,0,0,0,0,0l-45.2-45.3
		L135.5,376.5L135.5,376.5z"/>
	<path class="st6" d="M313,367.6L21.9,94.2l-9.1-81.4l81.4,9.1L367.6,313L313,367.6z"/>
	<path class="st0" d="M313,367.6l27.3-27.3L12.8,12.8l9.1,81.4L313,367.6z"/>
	<path class="st2" d="M358.4,394.6l75.8,75.6c3.8,4,7,8.4,9.6,13.3l2.4,5c5.9,11.8,21.5,14.2,30.7,5l16.6-16.6
		c9.2-9.2,6.8-24.8-5-30.7l-5-2.4c-4.9-2.6-9.3-5.8-13.3-9.6l-75.6-75.8L358.4,394.6z"/>
	<path class="st3" d="M376.5,376.5l-18.1,18.1l75.8,75.6c3.8,4,7,8.4,9.6,13.3l2.4,5c5.9,11.8,21.5,14.2,30.7,5l8.3-8.3L376.5,376.5
		z"/>
	<path class="st4" d="M403.8,349.4l-54.3,54.3c-15,15-39.3,15-54.3,0c-5-5-5-13.1,0-18.1l90.5-90.5c5-5,13.1-5,18.1,0
		C418.7,310.1,418.7,334.4,403.8,349.4L403.8,349.4z"/>
	<path class="st5" d="M340.3,340.3l-45.2,45.2c-5,5-5,13.1,0,18.1c0,0,0,0,0,0c15,15,39.3,15,54.3,0c0,0,0,0,0,0l27.1-27.1
		L340.3,340.3L340.3,340.3z"/>
	<path class="st7" d="M494.2,434.7l-4.6-2.3c-3.7-1.9-7.2-4.4-10.2-7.3l-66.6-66.7c20-20,20-52.4,0-72.4c-10-10-26.2-10-36.2,0
		l-8.6,8.6L334,258.5l164.9-154.9c2.2-2.1,3.6-4.9,4-7.9l9.1-81.4c0.8-7-4.3-13.4-11.3-14.1c-0.9-0.1-1.9-0.1-2.8,0l-81.4,9.1
		c-3,0.3-5.8,1.7-7.9,4L256,175.4L103.5,13.1c-2.1-2.2-4.9-3.6-7.9-4L14.2,0.1C7.2-0.7,0.9,4.4,0.1,11.4c-0.1,0.9-0.1,1.9,0,2.8
		l9.1,81.4c0.3,3,1.7,5.8,4,7.9L178,258.4l-33.9,36.1l-8.6-8.6c-10-10-26.2-10-36.2,0c-20,20-20,52.4,0,72.4L32.8,425
		c-3,2.9-6.3,5.3-10,7.3l-5.1,2.5C8.5,439.3,2,448.1,0.4,458.2c-1.6,10.1,1.7,20.5,8.9,27.7L26,502.6c7.3,7.3,17.6,10.6,27.7,8.9
		c10.2-1.6,19-8.1,23.5-17.4l2.3-4.6c2-3.9,4.5-7.3,7.3-10.2l66.7-66.6c9.7,9.7,22.5,15,36.2,15c13.7,0,26.5-5.3,36.2-15
		c10-10,10-26.2,0-36.2l-8.6-8.6l38.6-36.2l38.6,36.3l-8.6,8.6c-10,10-10,26.2,0,36.2c9.7,9.7,22.5,15,36.2,15
		c13.7,0,26.5-5.3,36.2-15l66.6,66.5c2.9,3,5.4,6.5,7.3,10l2.5,5.1c5.3,10.9,16.4,17.8,28.6,17.7c8.4,0,16.6-3.3,22.6-9.4l16.6-16.6
		c7.3-7.3,10.6-17.6,8.9-27.7C509.9,448,503.4,439.3,494.2,434.7L494.2,434.7z M423.9,34.1l60.8-6.8l-6.8,60.8L316.5,239.8
		l-42.9-45.7L423.9,34.1L423.9,34.1z M68.6,461.4c-4.6,4.8-8.6,10.3-11.9,16.6l-2.4,4.9c-0.9,1.8-2.6,3.1-4.7,3.5
		c-2,0.4-4.1-0.3-5.5-1.8l-16.6-16.6c-1.5-1.5-2.1-3.5-1.8-5.5c0.3-2,1.5-3.7,3.3-4.6l5.4-2.6c6-3.2,11.5-7.1,16.4-11.9l66.6-66.7
		l18.1,18.1L68.6,461.4L68.6,461.4z M171.7,394.6l-54.3-54.3c-10-10-10-26.2,0-36.2l90.5,90.5C198.2,404.3,181.4,404.3,171.7,394.6
		L171.7,394.6z M199.3,349.8l-37.1-37.1l34.5-36.7l40.6,38.1L199.3,349.8L199.3,349.8z M34.1,88.1l-6.8-60.8l60.8,6.8l261.7,278.6
		l-37.1,37.1L34.1,88.1z M304.1,394.6l90.5-90.5c10,10,10,26.2,0,36.2l-54.3,54.3C330.6,404.3,313.8,404.3,304.1,394.6L304.1,394.6z
		 M484.5,467.9l-16.6,16.6c-2.5,2.5-6.6,2.5-9.1-0.1c-0.4-0.4-0.8-0.9-1.1-1.5l-2.6-5.4c-3.2-6-7.2-11.5-11.9-16.4l-66.7-66.6
		l18.1-18.1l66.8,66.9c4.8,4.6,10.2,8.6,16.6,11.9l4.9,2.4c3.2,1.6,4.4,5.4,2.8,8.6C485.4,466.9,485,467.4,484.5,467.9L484.5,467.9z
		"/>
</g>
</svg>
