<?xml version="1.0" encoding="utf-8"?>
<!-- Generator: Adobe Illustrator 28.2.0, SVG Export Plug-In . SVG Version: 6.00 Build 0)  -->
<svg version="1.1" id="圖層_1" xmlns="http://www.w3.org/2000/svg" xmlns:xlink="http://www.w3.org/1999/xlink" x="0px" y="0px"
	 viewBox="0 0 512 512" style="enable-background:new 0 0 512 512;" xml:space="preserve">
<style type="text/css">
	.st0{fill:none;stroke:#09105A;stroke-width:51;stroke-linejoin:round;stroke-miterlimit:10;}
	.st1{fill:#FC4F4F;}
	.st2{fill:#E54242;}
	.st3{opacity:0.3;fill:#FFFFFF;enable-background:new    ;}
</style>
<g>
	<path class="st0" d="M408.9,64.9c-3.3-1.4-6.7-2.7-10.2-3.8c-6.9-2.2-14.3-3.7-21.8-4.5c-96.3-9.8-120.9,82-120.9,82
		s-24.7-91.8-120.7-82C45.9,65.6-1,178.2,57.5,272.8c16.7,27.1,42.8,56.3,70.8,83.4c0.1,0.1,0.3,0.3,0.4,0.4
		c-0.1-0.1-0.3-0.1-0.4-0.2c56.1,54.4,119.3,99.7,127.7,99.7c6.3-0.1,43.3-25.5,85-61.1c41.7-35.5,88.1-81.3,113.4-122
		c17.6-28.5,25.7-58.5,26-86.9C480.9,132,453.2,84,408.9,64.9z"/>
	<g>
		<path class="st1" d="M398.7,61.1c-6.9-2.2-14.3-3.7-21.8-4.5c-96.3-9.8-120.9,82-120.9,82s-24.7-91.8-120.7-82
			C45.9,65.6-1,178.2,57.5,272.8c16.7,27.1,42.8,56.3,70.8,83.4c56.1,54.4,119.3,99.7,127.7,99.7c12.6,0,147.8-101.3,198.4-182.9
			C508,186.3,473.3,84.6,398.7,61.1z"/>
		<path class="st2" d="M454.4,272.8c53.6-86.5,19-188.2-55.7-211.7c0,0,74.4,71.8,31.6,145.6s-186,165.6-206.2,168.8
			c-16.7,2.7-59.1-1.2-95.8-19.2c56.1,54.4,119.3,99.7,127.7,99.7C268.6,455.9,403.8,354.6,454.4,272.8L454.4,272.8z"/>
		
			<ellipse transform="matrix(0.6451 -0.7641 0.7641 0.6451 -63.273 120.5593)" class="st3" cx="98.1" cy="128.4" rx="50.8" ry="25.7"/>
	</g>
</g>
</svg>
